<?xml version="1.0" encoding="utf-8"?>
<!-- Generator: Adobe Illustrator 23.0.5, SVG Export Plug-In . SVG Version: 6.00 Build 0)  -->
<svg version="1.1" id="Ñëîé_1" xmlns="http://www.w3.org/2000/svg" xmlns:xlink="http://www.w3.org/1999/xlink" x="0px" y="0px"
	 viewBox="0 0 2600 2000" style="enable-background:new 0 0 2600 2000;" xml:space="preserve">
<style type="text/css">
	.st0{fill:#DCE6FF;}
	.st1{opacity:0.35;fill:url(#SVGID_1_);}
	.st2{opacity:0.35;fill:url(#SVGID_2_);}
	.st3{opacity:0.52;fill:url(#SVGID_3_);}
	.st4{fill:url(#SVGID_4_);}
	.st5{fill:url(#SVGID_5_);}
	.st6{fill:#7689D6;}
	.st7{fill:#677CC1;}
	.st8{fill:#5970B2;}
	.st9{fill:url(#SVGID_6_);}
	.st10{fill:#9B1BA5;}
	.st11{fill:#F9B233;}
	.st12{fill:#F39200;}
	.st13{fill:url(#SVGID_7_);}
	.st14{fill:#FFFFFF;}
	.st15{fill:url(#SVGID_8_);}
	.st16{fill:url(#SVGID_9_);}
	.st17{fill:url(#SVGID_10_);}
	.st18{fill:#FCB4B4;}
	.st19{fill:#F49F9F;}
	.st20{fill:#F99370;}
	.st21{fill:#8E4A35;}
	.st22{fill:#682713;}
	.st23{fill:#EB5648;}
	.st24{fill:#CE3932;}
	.st25{fill:#1D3F70;}
	.st26{fill:#E8C0A6;}
	.st27{fill:#395B96;}
	.st28{fill:#E57D61;}
	.st29{fill:#F9F8F3;}
	.st30{fill:#C16256;}
	.st31{fill:#F4D4BE;}
	.st32{fill:#103663;}
	.st33{fill:#0F2E54;}
	.st34{fill:#C92828;}
	.st35{fill:#3A72AA;}
	.st36{fill:#23659B;}
	.st37{opacity:0.1;fill:#FFFFFF;}
	.st38{opacity:0.2;fill:#FFFFFF;}
</style>
<g>
	<g id="_x31_2">
		<path class="st0" d="M300.2,1516.1c-4.8-13-9.5-26.5-14-40l11.1-3c4.5,13.5,9.2,26.9,13.9,39.8L300.2,1516.1z M2294,1499.3
			l-11.5-1.3c1.9-13.8,3.7-27.8,5.4-41.4l11.6,1.1C2297.8,1471.4,2295.9,1485.4,2294,1499.3z M273.4,1435.7
			c-4.1-13.4-8-27.1-11.7-40.6l11.3-2.5c3.7,13.4,7.6,27,11.7,40.4L273.4,1435.7z M2304.2,1416.1l-11.6-1c1.5-13.9,2.8-27.9,4-41.5
			l11.6,0.8C2307,1388.1,2305.7,1402.1,2304.2,1416.1z M251.1,1354.3c-3.4-13.7-6.6-27.5-9.5-41.1l11.4-2
			c2.9,13.5,6.1,27.2,9.4,40.8L251.1,1354.3z M2311.6,1332.6l-11.6-0.7c1-13.9,1.8-27.9,2.6-41.6l11.6,0.5
			C2313.4,1304.6,2312.6,1318.7,2311.6,1332.6z M233.2,1272c-2.6-13.8-5-27.8-7.1-41.4l11.5-1.4c2.1,13.6,4.5,27.4,7.1,41.2
			L233.2,1272z M2315.9,1249l-11.6-0.3c0.5-13.9,0.8-28,0.9-41.7l11.6,0.1C2316.7,1220.9,2316.4,1235,2315.9,1249z M220.3,1188.9
			c-1.7-14-3.2-28-4.5-41.8l11.6-0.8c1.2,13.6,2.7,27.6,4.5,41.4L220.3,1188.9z M2305.3,1165.3c-0.1-14-0.4-28-0.9-41.7l11.6-0.3
			c0.5,13.8,0.7,27.8,0.9,41.9L2305.3,1165.3z M212.7,1105.3c-0.8-14.1-1.3-28.2-1.5-41.9l11.6-0.2c0.2,13.7,0.7,27.6,1.5,41.6
			L212.7,1105.3z M2302.5,1082c-0.8-13.9-1.8-27.9-2.9-41.6l11.6-0.8c1.1,13.7,2.1,27.8,2.9,41.8L2302.5,1082z M223,1021.6
			l-11.6-0.2c0.3-14.1,0.9-28.2,1.9-41.9l11.6,0.6C223.9,993.7,223.3,1007.6,223,1021.6z M2295.6,998.9c-1.6-13.9-3.3-27.9-5.2-41.4
			l11.5-1.3c1.9,13.6,3.7,27.6,5.3,41.7L2295.6,998.9z M228.5,938.6l-11.6-1c1.6-14,3.5-28.1,5.7-41.7l11.5,1.5
			C231.9,910.9,230,924.7,228.5,938.6z M2283.9,916.4c-2.4-13.9-5.1-27.6-7.9-41l11.4-1.9c2.8,13.5,5.5,27.4,8,41.3L2283.9,916.4z
			 M908.7,914.9c-16.2-2.3-27.8-8.8-44-20.2l7.3-8c14.2,9.9,24.4,15.8,37.9,17.9L908.7,914.9z M949.1,890.2l-10.4-4.7
			c5.3-9.3,10-22.2,14-38.4l11.4,2.2C959.8,866.6,954.9,880,949.1,890.2z M830.6,864.9c-9.3-9.2-19.2-19.8-30.3-32.4l9.1-6.4
			c10.9,12.4,20.7,22.8,29.8,31.9L830.6,864.9z M241.9,856.4l-11.4-2c3-13.9,6.4-27.7,10.1-41.1l11.3,2.5
			C248.2,829.1,244.9,842.8,241.9,856.4z M2266.6,834.6c-3.4-13.7-7.2-27.3-11-40.4l11.2-2.7c3.9,13.2,7.7,26.9,11.1,40.8
			L2266.6,834.6z M971.9,807.5l-11.5-1.3c1.8-12.4,3.4-26,4.9-41.5l11.6,0.9C975.3,781.3,973.7,795,971.9,807.5z M771.8,799.1
			c-9.5-11.4-19.3-23.4-27.7-33.8l9.4-6.1c8.4,10.4,18.2,22.4,27.6,33.7L771.8,799.1z M1623.1,798.3c-9.1,0-17.9-2.4-26.4-7.2
			l6.2-8.8c12.7,7.2,25.2,7.2,38.7,1.5l5,9.4C1638.6,796.5,1630.7,798.3,1623.1,798.3z M264.3,775.9l-11.1-3
			c4.6-13.5,9.7-26.9,15.1-39.9l10.9,3.6C273.8,749.4,268.8,762.6,264.3,775.9z M1684.7,766l-8.5-7c8.8-8.5,18.3-19,28.9-32.1
			l9.4,6.1C1703.5,746.4,1693.8,757.2,1684.7,766z M1563.6,758.9c-7.5-10.4-15-22.6-22.8-37.3l10.5-4.4c7.6,14.3,14.8,26.1,22,36.1
			L1563.6,758.9z M2242.7,754.3c-4.7-13.4-9.7-26.7-14.9-39.3l10.9-3.6c5.2,12.8,10.3,26.2,15,39.8L2242.7,754.3z M716.6,731.4
			c-10.6-13-19.5-23.6-27.9-33.5l9.3-6.3c8.4,9.9,17.3,20.6,28,33.7L716.6,731.4z M980.3,723.7l-11.6-0.7
			c0.9-12.2,1.8-25.8,2.7-41.8l11.6,0.6C982.1,697.8,981.2,711.5,980.3,723.7z M296.6,698.2l-10.6-4.2c6.4-12.9,13.2-25.6,20.4-38
			l10.3,4.8C309.5,673,302.8,685.5,296.6,698.2z M1741.1,698.2l-9.7-5.7c8.3-11.2,16.8-23.1,25.4-35.1l9.8,5.6
			C1757.9,675,1749.4,686.9,1741.1,698.2z M1522.1,682.8c-5.3-11.8-10.7-24.7-16.6-39.3l10.9-3.5c5.9,14.6,11.3,27.3,16.5,39
			L1522.1,682.8z M2210.7,676.4c-6.3-13-12.9-25.6-19.7-37.5l10.4-4.7c6.9,12.1,13.6,24.9,20,38.1L2210.7,676.4z M660,665
			c-10.6-11.7-20.4-22.1-30-31.8l8.7-6.9c9.8,9.8,19.7,20.4,30.4,32.2L660,665z M985.5,640l-11.6-0.5c0.8-13.9,1.6-27.7,2.4-41.9
			l11.6,0.5C987.1,612.3,986.3,626.1,985.5,640z M1792,627.9l-9.7-5.7c9.7-13.1,18.4-24.5,26.6-34.7l9.5,6
			C1810.3,603.7,1801.7,614.9,1792,627.9z M339.7,625l-9.8-5.6c9.1-12.8,18.6-24.3,28-34.3l8.9,6.7
			C357.7,601.5,348.6,612.6,339.7,625z M1490,603.9c-5.3-13.9-10.6-27.9-15-39.7l11-3.3c4.4,11.8,9.6,25.7,15,39.6L1490,603.9z
			 M598,603.2c-11.9-10.3-23.6-19.5-34.7-27.1l7.1-8.2c11.5,7.9,23.5,17.3,35.8,27.9L598,603.2z M2168.5,602.7
			c-8.3-12.1-17.1-23.6-26-34.1l9.3-6.3c9.1,10.8,18.1,22.5,26.6,35L2168.5,602.7z M399.4,563.6l-7.1-8.3
			c13.9-9.5,28.3-16.3,43-20.3l3.4,9.9C425.4,548.6,412.2,554.9,399.4,563.6z M1846.4,560.4l-9-6.5c10.9-12,21.2-22.3,31.6-31.6
			l8.2,7.3C1867.1,538.6,1857.1,548.7,1846.4,560.4z M990.5,556.4l-11.6-0.6c1-15.1,2-28.8,3.1-41.9l11.6,0.7
			C992.5,527.6,991.5,541.3,990.5,556.4z M524.8,554.2c-14.5-6.4-28.8-10.6-42.4-12.2l1.6-10.3c14.9,1.8,30.4,6.3,46,13.2
			L524.8,554.2z M2112.6,537.4c-11.2-10.2-22.8-19.3-34.4-26.9l6.8-8.4c12.2,7.9,24.3,17.3,35.9,28L2112.6,537.4z M1460.1,524.5
			c-5.8-15.4-10.6-28-15-39.6l11-3.4c4.5,11.6,9.2,24.2,15,39.7L1460.1,524.5z M1912,503.1l-6.7-8.5c14.3-8.9,28.7-15.5,42.9-19.7
			l3.6,9.9C1938.8,488.7,1925.4,494.8,1912,503.1z M2038.9,490.4c-14.4-5.4-29-8.8-43.3-10l1.1-10.3c15.5,1.3,31.3,4.9,46.8,10.7
			L2038.9,490.4z M997.3,472.9l-11.6-0.9c1.4-14.6,3-28.6,4.7-41.8l11.6,1.2C1000.3,444.5,998.7,458.4,997.3,472.9z M1429.7,445.4
			c-5.6-14-10.9-26.8-16.2-39.1l10.9-3.7c5.3,12.4,10.6,25.3,16.3,39.3L1429.7,445.4z M1007.8,390l-11.5-1.5
			c2.4-14.5,4.9-28.5,7.7-41.5l11.4,1.9C1012.7,361.8,1010.2,375.6,1007.8,390z M1396.2,367.5c-6.2-13.4-12.5-26.2-18.7-38.1
			l10.6-4.4c6.2,12,12.6,25,18.9,38.5L1396.2,367.5z M1025.3,308.3l-11.3-2.5c4.1-14.5,8.5-28.1,13.3-40.6l11,3.4
			C1033.7,280.7,1029.3,294.1,1025.3,308.3z M1356.8,292.1c-7.6-12.9-15.5-24.9-23.2-35.9l9.8-5.5c7.9,11.2,15.9,23.5,23.7,36.6
			L1356.8,292.1z M1055.8,230.5l-10.4-4.6c7.6-13.8,16.1-26,25.2-36.3l9.1,6.4C1071.1,205.8,1063.1,217.4,1055.8,230.5z M1307,222.6
			c-10.2-11.4-20.6-21.4-31.2-29.9l7.8-7.7c11,8.9,21.9,19.4,32.5,31.2L1307,222.6z M1112.1,169.2l-6.3-8.7
			c13.8-7.9,28.9-13,45.1-15.2l1.8,10.3C1138.2,157.5,1124.5,162.1,1112.1,169.2z M1239.1,169.2c-13.5-6.5-27.7-11-41.9-13.2l2-10.2
			c15.5,2.5,30.8,7.3,45.4,14.3L1239.1,169.2z"/>
		<linearGradient id="SVGID_1_" gradientUnits="userSpaceOnUse" x1="97.2979" y1="1713.5933" x2="2502.6013" y2="1713.5933">
			<stop  offset="0" style="stop-color:#A737D5"/>
			<stop  offset="1" style="stop-color:#EF497A"/>
		</linearGradient>
		<path class="st1" d="M99.1,1572.4c0,0-16.9,65.5,53,81.9c95.6,22.4,636.3,82.6,499.9,127.5c-77,25.3,59.9,58.4,434.9,71
			s1018.3-36.9,801.9-110.2c-216.3-73.3,665.1-17.7,611.4-170.2H99.1z"/>
		<linearGradient id="SVGID_2_" gradientUnits="userSpaceOnUse" x1="378.015" y1="939.8551" x2="2217.8293" y2="939.8551">
			<stop  offset="0" style="stop-color:#A737D5"/>
			<stop  offset="1" style="stop-color:#EF497A"/>
		</linearGradient>
		<path class="st2" d="M521.8,1572.2c0,0-271.8-684.6-68-830.3C590,644.5,723,889.7,895.3,776.1C1048.7,675,950.5,438.9,1099.9,325
			c183.7-140,490.6,555.3,706.2,447.4c339.1-169.7,546.5,98,311,801L521.8,1572.2z"/>
		<linearGradient id="SVGID_3_" gradientUnits="userSpaceOnUse" x1="193.5391" y1="1379.7178" x2="2406.3604" y2="1379.7178">
			<stop  offset="0" style="stop-color:#A737D5"/>
			<stop  offset="1" style="stop-color:#EF497A"/>
		</linearGradient>
		<path class="st3" d="M2282.2,1483.4c-88.8-5.5-74.3,43.8-200.8,43.8c-115.7,0-112.5-110.5-189.9-134
			c-142.6-43.2-260.1,175.6-315.4,65.8c-105-291.4-411.1-437.6-552.4,0c-55.3,109.8-184.5-86.1-315.4-65.8
			c-80.5,12.5-74.2,134-189.9,134c-126.5,0-112-49.3-200.8-43.8c-95.6,5.9-124.1,93.1-124.1,93.1h2212.8
			C2406.4,1576.5,2377.8,1489.2,2282.2,1483.4z"/>
	</g>
	<g id="_x31_1">
		<linearGradient id="SVGID_4_" gradientUnits="userSpaceOnUse" x1="1532.0675" y1="508.1139" x2="1799.7798" y2="508.1139">
			<stop  offset="0" style="stop-color:#A737D5"/>
			<stop  offset="1" style="stop-color:#EF497A"/>
		</linearGradient>
		<path class="st4" d="M1659.6,575.1C1659.6,575.1,1659.6,575.1,1659.6,575.1c9-1.8,44.5-9.6,78.5-31.9
			c39.2-25.7,61.6-60.8,61.7-61.1c-0.3,0-41.5,6.5-80.7,32.2c-34.1,22.3-55.4,51.8-60.5,59.3c-0.1,0-0.1-0.1-0.2-0.1
			c6-8.5,30.8-45.7,40.9-94.4c11.6-55.6-0.3-105.1-0.3-105.1s-30.6,40.6-42.2,96.2c-9,43-3.9,82.4-1.1,98
			c-3-13.5-11.5-44.1-30.8-73.6c-25.7-39.2-60.8-61.6-61.1-61.7c0,0.3,6.5,41.5,32.2,80.7c22,33.6,51,54.9,59,60.3c0,0,0,0,0,0
			c-6.8-5-28.5-19.9-56.9-28c-34.5-9.9-65.9-6.1-65.9-6.1s24.6,19.8,59.2,29.7c28.2,8.1,54.2,7,62.9,6.4l0,0.2
			c-6.9,0.6-23.9,2.8-41.6,10.4c-23,9.9-38.4,25.4-38.4,25.4l0,0c0.3,0,22-0.8,44.8-10.6c16.1-7,28.5-16.7,34.5-21.8l-6.5,31.1
			c-0.3,1.5,0.6,2.9,2.1,3.3c0.2,0,0.4,0.1,0.6,0.1c1.3,0,2.4-0.9,2.7-2.2l6.6-31.5c3.3,6.9,10.9,21.1,23.1,34.3
			c16.9,18.2,36.5,27.5,36.8,27.7l0,0c0,0-8-20.3-25.1-38.6c-13.4-14.3-28.4-23.2-34.3-26.3l0-0.2c7.3,3.9,31,15.5,60.5,19.5
			c35.6,4.8,66.1-3.6,66.1-3.6s-27.2-16-62.8-20.8C1693.6,568.2,1667.4,573.3,1659.6,575.1z"/>
		<linearGradient id="SVGID_5_" gradientUnits="userSpaceOnUse" x1="748.1732" y1="597.6003" x2="928.991" y2="597.6003">
			<stop  offset="0" style="stop-color:#A737D5"/>
			<stop  offset="1" style="stop-color:#EF497A"/>
		</linearGradient>
		<path class="st5" d="M891.3,632.2c22.4-8.4,37.7-22.8,37.7-22.8s-21-0.9-43.4,7.5c-18.7,7-32.4,18.2-36.5,21.7c0,0,0,0,0,0
			c4.8-3.8,23.1-19.6,36.1-43.3c15-27.4,17.1-55,17.1-55.3c-0.2,0.1-22.3,16.9-37.3,44.2c-13,23.8-16.3,47.8-17,53.8
			c-0.1,0-0.1,0-0.2,0c0.9-6.9,3.7-36.5-5.6-68.3c-10.6-36.3-33.1-61.7-33.1-61.7s-5.3,33.5,5.4,69.8c8.2,28.1,23.6,49.7,30.1,58
			c-6-7-20.6-22.3-41.2-33.6c-27.4-15-55-17.1-55.3-17.1c0.1,0.2,16.9,22.3,44.2,37.3c23.5,12.9,47.2,16.2,53.6,16.9c0,0,0,0,0,0
			c-5.5-0.8-23-2.7-42.2,1.4c-23.4,5-40.6,17.1-40.6,17.1s20.7,3.9,44.1-1.1c19.1-4.1,34.1-12.9,38.9-16l0,0.1
			c-3.9,2.5-13.2,9.1-21.2,19.2c-10.4,13.1-14.6,27-14.6,27l0,0c0.2-0.1,12.7-7.4,23-20.3c7.3-9.2,11.5-18.7,13.4-23.6l5.9,20.3
			c0.2,0.8,1,1.3,1.8,1.3c0.2,0,0.3,0,0.5-0.1c1-0.3,1.5-1.3,1.2-2.3l-6-20.6c4.1,3,13,9,24.4,12.9c15.7,5.4,30.1,4.7,30.3,4.7l0,0
			c0,0-11.1-9.4-26.8-14.8c-12.4-4.2-24-4.7-28.4-4.7l0-0.1C855.1,639.7,872.7,639.1,891.3,632.2z"/>
	</g>
	<g id="_x31_0">
		<path class="st6" d="M1279.8,1569.6l12.7-244.9c0.2-3.6,3.3-6.4,6.9-6.2c3.4,0.2,6,2.9,6.2,6.2l12.7,244.9
			c0.6,10.6-7.6,19.7-18.3,20.3c-10.6,0.6-19.7-7.6-20.3-18.3C1279.8,1570.9,1279.8,1570.2,1279.8,1569.6z"/>
		<path class="st6" d="M1412.1,787.3c0,295.4-112.9,534.8-112.9,534.8s-112.9-239.5-112.9-534.8c0-295.4,112.9-534.8,112.9-534.8
			S1412.1,491.9,1412.1,787.3z"/>
		<path class="st6" d="M1299.1,1322.2c-1.6-0.6-204.4-77.3-376.6-249.5S673.5,697.6,673,696c1.6,0.6,204.4,77.3,376.6,249.5
			S1298.5,1320.6,1299.1,1322.2z"/>
		<path class="st6" d="M1299.8,1323.7c0,0-155.7,52.6-342,39c-186.3-13.6-332.7-88.3-332.7-88.3s155.7-52.6,342-39
			c169.5,12.4,306,75.3,329.2,86.6C1298.6,1323.1,1299.8,1323.7,1299.8,1323.7z"/>
		<path class="st6" d="M1300.9,1324.7c0,0-62.2,95-168.6,170c-105.6,74.5-215,101.4-216.8,101.8l0,0c0,0,62.2-95,168.6-170
			c88.8-62.6,180.3-91.6,208.2-99.5C1297.9,1325.4,1300.9,1324.7,1300.9,1324.7z"/>
		<path class="st7" d="M1412.1,787.3c0,295.4-112.9,534.8-112.9,534.8V252.5C1299.1,252.5,1412.1,491.9,1412.1,787.3z"/>
		<path class="st7" d="M1299.1,1322.2L673,696c1.6,0.6,204.4,77.3,376.6,249.5S1298.5,1320.6,1299.1,1322.2z"/>
		<path class="st7" d="M1296.3,1322l-671.3-47.5c0,0,155.7-52.6,342-39C1136.6,1247.8,1273,1310.7,1296.3,1322z"/>
		<path class="st7" d="M1292.3,1327l-376.8,269.5l0,0c0,0,62.2-95,168.6-170C1172.9,1363.8,1264.5,1334.9,1292.3,1327z"/>
		<path class="st7" d="M1300.9,1322.2c1.6-0.6,204.4-77.3,376.6-249.5s249-375,249.5-376.6c-1.6,0.6-204.4,77.3-376.6,249.5
			S1301.5,1320.6,1300.9,1322.2z"/>
		<path class="st7" d="M1300.2,1323.7c0,0,155.7,52.6,342,39c186.3-13.6,332.7-88.3,332.7-88.3s-155.7-52.6-342-39
			c-169.5,12.4-306,75.3-329.2,86.6C1301.4,1323.1,1300.2,1323.7,1300.2,1323.7z"/>
		<path class="st7" d="M1299.1,1324.7c0,0,62.2,95,168.6,170c105.6,74.5,215,101.4,216.8,101.8l0,0c0,0-62.2-95-168.6-170
			c-88.8-62.6-180.3-91.6-208.2-99.5C1302.1,1325.4,1299.1,1324.7,1299.1,1324.7z"/>
		<path class="st6" d="M1300.9,1322.2L1927,696c-1.6,0.6-204.4,77.3-376.6,249.5S1301.5,1320.6,1300.9,1322.2z"/>
		<path class="st6" d="M1303.7,1322l671.3-47.5c0,0-155.7-52.6-342-39C1463.4,1247.8,1327,1310.7,1303.7,1322z"/>
		<path class="st6" d="M1307.7,1327l376.8,269.5l0,0c0,0-62.2-95-168.6-170C1427.1,1363.8,1335.5,1334.9,1307.7,1327z"/>
		<path class="st8" d="M1392.9,1525.9c-23.4,0-44.2,11.9-57.5,30.4c-22.7-14.8-59.2-12-78.8,6c-22.5-29.1-62-14.4-71,21.1
			c-25-26.9-67.7-4.2-66.5,32.9h345.5C1472.1,1570.4,1437.4,1525.3,1392.9,1525.9z"/>
	</g>
	<g id="_x39_">
		<linearGradient id="SVGID_6_" gradientUnits="userSpaceOnUse" x1="299.9581" y1="1399.8713" x2="508.676" y2="1399.8713">
			<stop  offset="0" style="stop-color:#A737D5"/>
			<stop  offset="1" style="stop-color:#EF497A"/>
		</linearGradient>
		<path class="st9" d="M508.7,1593.7H300v-307.2c0-44.4,36-80.4,80.4-80.4h47.9c44.4,0,80.4,36,80.4,80.4V1593.7z"/>
		<ellipse class="st10" cx="404.3" cy="1593.7" rx="104.4" ry="33.1"/>
		<rect x="344.6" y="1174.2" class="st10" width="119.4" height="40.2"/>
		<path class="st11" d="M314.9,1390.2v180.6c0,18.3,40,33.1,89.4,33.1s89.4-14.8,89.4-33.1v-180.6H314.9z"/>
		<ellipse class="st12" cx="404.3" cy="1390.2" rx="89.4" ry="33.1"/>
		<path class="st11" d="M383.8,1382.8c0,14.6,9.2,26.3,20.5,26.3c11.3,0,20.5-11.8,20.5-26.3v-178.5c0-3.5-41-3.5-41,0V1382.8z"/>
		<linearGradient id="SVGID_7_" gradientUnits="userSpaceOnUse" x1="322.1732" y1="1166.2855" x2="486.4608" y2="1166.2855">
			<stop  offset="0" style="stop-color:#A737D5"/>
			<stop  offset="1" style="stop-color:#EF497A"/>
		</linearGradient>
		<path class="st13" d="M322.2,1121.5v72.8c0,9.3,36.8,16.8,82.1,16.8s82.1-7.5,82.1-16.8v-72.8H322.2z"/>
		<ellipse class="st10" cx="404.3" cy="1121.5" rx="82.1" ry="16.8"/>
		<path class="st12" d="M430.7,1013.8c0-14.6-11.8-26.3-26.3-26.3c-14.6,0-26.3,11.8-26.3,26.3v107.7l0,0l0,0
			c0,3.5,11.8,6.3,26.3,6.3c14.6,0,26.3-2.8,26.3-6.3l0,0l0,0V1013.8z"/>
	</g>
	<g id="_x38_">
		<polygon class="st14" points="1535,736.4 1503.4,736.4 1503.4,783.3 1456.5,783.3 1456.5,814.9 1503.4,814.9 1503.4,861.8 
			1535,861.8 1535,814.9 1581.9,814.9 1581.9,783.3 1535,783.3 		"/>
		<polygon class="st14" points="1085.7,683.7 1054.2,683.7 1054.2,730.6 1007.3,730.6 1007.3,762.2 1054.2,762.2 1054.2,809.1 
			1085.7,809.1 1085.7,762.2 1132.6,762.2 1132.6,730.6 1085.7,730.6 		"/>
		<polygon class="st14" points="1175,421.2 1148.2,421.2 1148.2,394.4 1130.2,394.4 1130.2,421.2 1103.4,421.2 1103.4,439.2 
			1130.2,439.2 1130.2,466 1148.2,466 1148.2,439.2 1175,439.2 		"/>
		<polygon class="st14" points="2031.3,932.6 2004.6,932.6 2004.6,905.9 1986.5,905.9 1986.5,932.6 1959.8,932.6 1959.8,950.7 
			1986.5,950.7 1986.5,977.4 2004.6,977.4 2004.6,950.7 2031.3,950.7 		"/>
		<polygon class="st14" points="620.5,932.6 593.7,932.6 593.7,905.9 575.7,905.9 575.7,932.6 548.9,932.6 548.9,950.7 575.7,950.7 
			575.7,977.4 593.7,977.4 593.7,950.7 620.5,950.7 		"/>
	</g>
	<g id="_x37_">
		<linearGradient id="SVGID_8_" gradientUnits="userSpaceOnUse" x1="2060.1111" y1="1427.8643" x2="2399.0193" y2="1427.8643">
			<stop  offset="0" style="stop-color:#A737D5"/>
			<stop  offset="1" style="stop-color:#EF497A"/>
		</linearGradient>
		<path class="st15" d="M2060.1,1201.6v414.8c0,20.8,75.9,37.7,169.5,37.7s169.5-16.9,169.5-37.7v-414.8H2060.1z"/>
		<ellipse class="st10" cx="2229.6" cy="1201.6" rx="169.5" ry="37.7"/>
		<linearGradient id="SVGID_9_" gradientUnits="userSpaceOnUse" x1="2100.4004" y1="1153.2515" x2="2358.7297" y2="1153.2515">
			<stop  offset="0" style="stop-color:#A737D5"/>
			<stop  offset="1" style="stop-color:#EF497A"/>
		</linearGradient>
		<path class="st16" d="M2100.4,1092.1v93.6c0,15.9,57.8,28.7,129.2,28.7s129.2-12.9,129.2-28.7v-93.6H2100.4z"/>
		<linearGradient id="SVGID_10_" gradientUnits="userSpaceOnUse" x1="2100.4004" y1="1092.078" x2="2358.7297" y2="1092.078">
			<stop  offset="0" style="stop-color:#A737D5"/>
			<stop  offset="1" style="stop-color:#EF497A"/>
		</linearGradient>
		<ellipse class="st17" cx="2229.6" cy="1092.1" rx="129.2" ry="28.7"/>
		
			<ellipse transform="matrix(0.7071 -0.7071 0.7071 0.7071 -353.3539 1993.3962)" class="st18" cx="2229.6" cy="1423.2" rx="121.9" ry="121.9"/>
		<path class="st19" d="M2309.2,1428.3h-159.3c-2.8,0-5.1-2.3-5.1-5.1s2.3-5.1,5.1-5.1h159.3c2.8,0,5.1,2.3,5.1,5.1
			S2312,1428.3,2309.2,1428.3z"/>
		<path class="st19" d="M2309.2,1389.2h-159.3c-2.8,0-5.1-2.3-5.1-5.1s2.3-5.1,5.1-5.1h159.3c2.8,0,5.1,2.3,5.1,5.1
			S2312,1389.2,2309.2,1389.2z"/>
		<path class="st19" d="M2309.2,1467.3h-159.3c-2.8,0-5.1-2.3-5.1-5.1s2.3-5.1,5.1-5.1h159.3c2.8,0,5.1,2.3,5.1,5.1
			S2312,1467.3,2309.2,1467.3z"/>
	</g>
	<g id="_x36_">
		<path class="st20" d="M1485.3,1352.9c-19.3,6.3-26.5-23.3-18.8-25.9c5-0.3,18.4,6.2,20.8,8.4
			C1487.3,1335.4,1484.7,1342,1485.3,1352.9z"/>
		<path class="st21" d="M1674.1,1180.2l-85.9,35c0,0-5.2-27.8-20.1-64.2c-2.4-5.9-5-12-8-18.2l45.9-57.4c0,0,15.5-1.9,41.1,40.5
			C1672.7,1158.5,1674.1,1180.2,1674.1,1180.2z"/>
		<path class="st22" d="M1642.8,1165.7c5.3,15.6,7.8,22.4,8.3,23.9l-62.9,25.6c0,0-5.2-27.8-20.1-64.2l59.7-22.2
			C1627.8,1128.8,1636.7,1147.9,1642.8,1165.7z"/>
		<path class="st20" d="M1636.7,1211.1c-11.3,21.3-20,57-28.7,83.8c-16.1,49.3-71,73-119.3,59.1c-14.7-2.9-9.8-21.5,4.5-18.6
			c96.1-2.6,67.3-74.1,94.8-137.1c3.3-10.4,12-20.7,13.4-21.9C1622.5,1158.5,1654.6,1183.8,1636.7,1211.1z"/>
		<path class="st23" d="M1601.4,1176.2c3.2,22.7,11.8,83.9,15,106.5c-10.2-11.9-38.9-15.4-45.8-12.3
			C1572.3,1222.7,1587,1189,1601.4,1176.2z"/>
		<path class="st24" d="M1591.5,1215.4c-4.1,9.3-15.7,40.3-2.1,54.7l7.8-2.1L1591.5,1215.4z"/>
		<path class="st24" d="M1614,1265.4l2.4,17.4c-10.2-11.9-38.9-15.4-45.8-12.3c0.1-2.9,0.3-5.7,0.5-8.5
			C1571.1,1262,1592.6,1258.6,1614,1265.4z"/>
		<path class="st20" d="M1597.8,1166.5c1.2,4.3,3.7,9.7,3.7,9.7c7.6,8.3,20.5,0.3,24.4-9.2c0,0-3.7-7.2-5-10.6L1597.8,1166.5z"/>
		<path class="st21" d="M1583,1081.5c-33.4-1.1-34,51.6-9.9,68.8L1583,1081.5z"/>
		<path class="st20" d="M1901,1589.9l8.5-60.6c-3.1-1.5-18.1-0.6-23.5-1.9c-3.4-0.3-46.1-11.1-50.5-12.1l-4.9,34.8l45.6,0.7
			c5.4,0.1,10,4,10.9,9.3c2.7,11.8-1.2,24.2,6.6,32.6C1896.5,1594.9,1900.5,1593.3,1901,1589.9z"/>
		<path class="st25" d="M1903.9,1526.6c2,0.5,3.9,1.4,5.6,2.7l-8.6,61.1c-0.4,3-3.6,4.7-6.3,3.3c-6.2-3.2-14.6-12.6-12.1-41
			c0,0,4.2-9.2,3.5-25.3C1886.1,1527.3,1895.8,1524.4,1903.9,1526.6z"/>
		<path class="st26" d="M1884.8,1582.5c-5.3,0,7-11.3,10.2-7.6c0.2,0.7-0.2,1.4-0.9,1.5C1886.7,1578.4,1887,1581.8,1884.8,1582.5z"
			/>
		<path class="st26" d="M1882.7,1573.5c-5.7,0,8.9-12.5,12.5-8.3c0.1,0.7-0.4,1.3-1,1.4C1886.1,1568.2,1884.6,1573.1,1882.7,1573.5z
			"/>
		<path class="st26" d="M1882.1,1562.2c-6-0.2,10.3-12.1,13.3-8.2c0.1,0.7-0.3,1.3-1,1.5C1886.1,1557.3,1883.8,1561.9,1882.1,1562.2
			z"/>
		<path class="st27" d="M1894.5,1593.7l9.4-67.1c2,0.5,3.9,1.4,5.6,2.7l-8.6,61.1C1900.5,1593.4,1897.2,1595.1,1894.5,1593.7z"/>
		<path class="st20" d="M1633.6,1698.5l61.1-2c0.9-3.3-2.6-18-2.1-23.4c0-2.3,0.3-14.9,0.4-17.2l-5.3-34.4l-26.9,0.9l7.1,45
			c0.8,5.3-2.2,10.5-7.3,12.4c-11.1,4.7-24,3-31,12C1627.8,1694.7,1630.1,1698.6,1633.6,1698.5z"/>
		<path class="st25" d="M1696.4,1690.5c-0.2,2.1-0.7,4.1-1.7,5.9l-61.7,2c-3,0.1-5.3-2.8-4.4-5.6c2.1-6.7,9.9-16.6,38.3-19
			c0,0,9.8,2.6,25.6-0.8C1692.6,1673,1697.2,1682.1,1696.4,1690.5z"/>
		<path class="st26" d="M1646.8,1690.1c-0.5,0-1-0.3-1.2-0.7c-2.4-5.5-6.6-7.1-6.7-7.1c-1.5-0.5-0.7-2.9,0.8-2.4
			c0.2,0.1,5.3,2,8.2,8.5C1648.3,1689.1,1647.6,1690.1,1646.8,1690.1z"/>
		<path class="st26" d="M1656.5,1688.6c-0.5,0-1-0.3-1.2-0.8c-2.2-6.4-7.9-9.2-8-9.2c-1.5-0.7-0.4-3,1.1-2.3
			c0.3,0.1,6.7,3.3,9.3,10.7C1657.9,1687.7,1657.3,1688.6,1656.5,1688.6z"/>
		<path class="st26" d="M1667.5,1686.8c-0.5,0-1-0.3-1.2-0.8c-2.6-6.7-8.1-10.1-8.1-10.1c-2.5-6,7.6,1,10.4,9.2
			C1668.9,1685.9,1668.3,1686.8,1667.5,1686.8z"/>
		<path class="st27" d="M1628.7,1692.7l67.7-2.2c-0.2,2.1-0.7,4.1-1.7,5.9l-61.7,2C1630,1698.6,1627.7,1695.6,1628.7,1692.7z"/>
		<path class="st28" d="M1621.7,1158.7c-8.3,8.7-20.4,11.3-22.6,11.7c-5.4-15.7-16.3-35.6-6.9-45.1
			C1598.8,1118.7,1617.4,1147.9,1621.7,1158.7z"/>
		<path class="st20" d="M1625.1,1114.8c2.6,11.2,3.9,24.6-1.6,35l0,0c-2.2,4.2-5.6,7.6-9.6,10.2c-21.1,17.1-62.9-0.5-51.6-28.7
			c1.9-4.5,2.8-9.9,2.6-14.3C1561.7,1070.2,1616.6,1075.3,1625.1,1114.8z"/>
		<path class="st29" d="M1579.3,1147.7l11-12.7C1595.1,1142.7,1588.2,1151.9,1579.3,1147.7z"/>
		<path class="st30" d="M1582.2,1124.7c-1.7-1.4,0.6-4.1,2.3-2.6C1586.2,1123.5,1583.9,1126.2,1582.2,1124.7z"/>
		<path class="st30" d="M1567.9,1127.9c-1.7-1.4,0.6-4.1,2.3-2.6C1571.8,1126.7,1569.5,1129.4,1567.9,1127.9z"/>
		<path class="st30" d="M1579.5,1148.3c-0.6,0.2-1.1-0.6-0.7-1.1c0.4,0,11.3-14.3,11.9-12.8c0.3,0.2,0.3,0.6,0.1,0.9
			C1590.5,1135.6,1579.9,1148.3,1579.5,1148.3z"/>
		<path class="st18" d="M1875.9,1521.9c0,0,0.4,17.2-4,33.7c-117.6-7.2-166.5-21.5-178.2-135.1c0,0-38.4,77.6,3,222.5l0,0
			c1.2,4.3,2.4,8.4,3.8,12.7c0,0-14.8,12.6-35.7,9.1c-27-48.8-86.8-166.2-40.8-322.6c28.7-34.7,84.3-55.5,122.3-39.2
			C1778.4,1380.3,1731,1493.4,1875.9,1521.9z"/>
		<path class="st19" d="M1668.5,1655.7c-49.9-113.7-49.4-242.8-19.6-310.7C1625,1431.4,1625.3,1527.3,1668.5,1655.7z"/>
		<path class="st19" d="M1861,1545.7c-156.6-4.5-142.2-99.3-153.5-208.2c-0.1-2.3,3.6-2.7,3.7-0.2c12.3,106.5-6.2,199.3,149.8,204.7
			C1863.3,1542,1863.3,1545.7,1861,1545.7z"/>
		<path class="st30" d="M1577.6,1140.1c-2.9,0.7-7.1,0.3-4.7-3.4c2.4-2.9,2-10,2-10.1c-0.1-0.8,1.3-0.9,1.3-0.1
			c0,0.3,0.4,7.7-2.3,11c-0.3,0.4-0.6,0.9-0.3,1.1c0.8,0.8,4,0.6,5.8-0.9c0.3-0.2,0.7-0.2,0.9,0.1
			C1581,1139.2,1578.6,1139.7,1577.6,1140.1z"/>
		<path class="st23" d="M1746.4,1303.1c0,0-61.1,43.8-124.6,42c0,0-5.2-2.2-6-11.5c2.4-61.8-43.4-55.3-26.8-109.7
			c3.7-11.9,9.9-36.8,12.4-47.6c0.3,1.6,4.5,21.5,24.4-9.2C1693,1155.1,1695.7,1268.4,1746.4,1303.1z"/>
		<path class="st24" d="M1732.5,1287.1l-4.7,3.3c-12-13.8-36.3-58.5-59-67.1l22.7-6.2C1703.7,1241.8,1714.9,1271,1732.5,1287.1z"/>
		<path class="st20" d="M1638.1,1166.3c87.5-6.5,167.1,99.2,87.7,167.4c-5.6,4.8-8.8,9.3-15.5,2.6c-3.5-3.6,0.3-8.3,2.2-12.4
			c25.5-53.2-2.4-99-59.6-106.6C1651.1,1217.1,1638.1,1166.3,1638.1,1166.3z"/>
		<path class="st28" d="M1625.1,1114.8c2.6,11.2,3.9,24.6-1.6,35l0,0c2.3-7.6-0.1-21.6-0.1-21.6l-4.5-4.8
			c-41.5,3.1-50.3-27.6-50.3-27.6C1584.7,1069.7,1620.7,1088.8,1625.1,1114.8z"/>
		<path class="st21" d="M1571.5,1091.5c0,0,8.9,30.2,46.5,28.8l9.1-11.3C1629.4,1081.8,1595.2,1057.2,1571.5,1091.5z"/>
		<path class="st21" d="M1606.1,1067c3.6,30.7-31.9,35.5-36.5,4.9C1566,1041.1,1601.5,1036.4,1606.1,1067z"/>
		<path class="st20" d="M1634,1117.4c2.5,12.9-13.9,15.9-16,2.9C1615.5,1107.4,1631.8,1104.5,1634,1117.4z"/>
		<path class="st30" d="M1631.2,1121.5c-0.4,0.1-0.8-0.2-0.8-0.6c-0.4-4-1.4-6.4-3-7c-3.1-1-4.5,2.6-5.7,1.7c-0.8-1.1,3-3.8,6.2-2.9
			C1629.5,1113,1632.6,1117.9,1631.2,1121.5z"/>
		<path class="st30" d="M1625.2,1122.9c-2.1,1.1,0.2-9.6,4.7-8.5c0.2,0.3,0,0.7-0.3,0.9C1625,1117.7,1626.4,1122.3,1625.2,1122.9z"
			/>
		<path class="st31" d="M1629.7,1125.6c0.7,1.8-2,2.9-2.7,1.1C1626.2,1125,1629,1123.9,1629.7,1125.6z"/>
		<path class="st25" d="M1454.4,1371.5c-30,8.6-46.6-30.4-20.7-47.9c11.9-8.7,30.5-7.1,38.8,5.3l0,0
			C1483.4,1343.7,1472.7,1367,1454.4,1371.5z M1445.5,1327.2c-12.8,3.1-21.1,19.5-13.5,29.7c13.5,19.3,46.9-3.9,33.6-23.3l0,0
			C1461.5,1327.4,1452.7,1325.1,1445.5,1327.2z"/>
		<path class="st8" d="M1366,1453.4c-1.4,63.4-69.5,23.8-19.6-48.6C1346.4,1404.8,1365.7,1431.3,1366,1453.4z"/>
		<path class="st23" d="M1711.4,1187.5c-3.8,0.1-21.2,22.8-16,46.2c-12.8-5.9-28.9-12.4-51.6-16.5c-22.6-2.7-20.9-37.2-18-50
			C1646.7,1163.2,1682.4,1164.4,1711.4,1187.5z"/>
		<path class="st25" d="M1464.7,1366.2l-30-43.3c-1.7-2.4-5-3-7.5-1.4l-32.2,22.4c-10.9,7.5-0.1,19.3,5,26.6l-40.3,5.4
			c-0.3-2.1,1.7-8.5-2-8.5c-1.3-0.1-2.5,1-2.6,2.3l-0.9,17.7c-0.2,3.1,4.8,3.4,4.9,0.2c0,0,0.4-7.3,0.4-7.3l56.3,13
			c3.5,5,10.3,6.2,15.3,2.7l32.2-22.4C1465.8,1372,1466.4,1368.6,1464.7,1366.2z"/>
		<path class="st20" d="M1480.5,1340.2c-3.8-5.9-9.2-12.3-16.5-13.5c-1.2-0.1-2.2-1.2-2-2.5c6.1-6.8,26.6,5.8,31.2,11
			C1497.1,1339.9,1483.5,1345.4,1480.5,1340.2z"/>
		<path class="st20" d="M1469.9,1348.6c-7.6,1.5-8.4-8.4-0.5-5.3l-0.1,0C1473.4,1342.5,1473.8,1347.9,1469.9,1348.6z"/>
		<path class="st20" d="M1467.6,1343.9c-9.1,0-5.8-10.3,0.1-5.5c-0.1-0.1,0.4,0.1,0.5,0.1c0,0,0.2,0,0.1,0
			C1472.4,1338.6,1471.3,1344.1,1467.6,1343.9z"/>
		<path class="st20" d="M1464.9,1339.1l-2.8-0.8c-3.9-1.3-0.7-6.3,2.5-5.2c0,0,2.8,0.8,2.8,0.8
			C1471.4,1335.3,1468.2,1340.3,1464.9,1339.1z"/>
		<path class="st20" d="M1463.3,1334.6l-2.8-0.8c-3.9-1.3-0.7-6.3,2.5-5.2c0,0,2.8,0.8,2.8,0.8
			C1469.8,1330.7,1466.6,1335.8,1463.3,1334.6z"/>
		<path class="st24" d="M1711.9,1187.6c0,0-19.5,13.2-16.4,46.6c0,0-2.5-1.8-6.6-3.5c0,0-7.5-32.9,16.8-47.4
			C1705.7,1183.3,1710,1186.1,1711.9,1187.6z"/>
		<path class="st24" d="M1634.9,1165.8c-4.2,12.3-29.4,44.2-38.9,16.3c3.2-4.1,5.4-5.9,5.4-5.9c0.3,1.6,4.5,21.5,24.4-9.2
			C1626.4,1167,1629.6,1166.3,1634.9,1165.8z"/>
		<path class="st19" d="M1875.9,1521.9c0,0,0.4,17.2-4,33.7c0,0-5.3-0.3-13.9-0.9c5.1-13.3,4.6-36,4.6-36
			C1866.9,1519.8,1871.3,1520.9,1875.9,1521.9z"/>
		<path class="st19" d="M1696.8,1643.1L1696.8,1643.1c-41.5-145-3.1-222.5-3.1-222.5c-38.2,21.1-30.9,149.6-3.1,227.1
			c-13.5,7.7-32,6.4-32,6.4c3.8,7,6.2,10.8,6.2,10.8c20.9,3.6,35.7-9.1,35.7-9.1C1699.3,1651.5,1698,1647.3,1696.8,1643.1z"/>
		<path class="st20" d="M1689.2,1330c1.3,3.1,7.6-0.5,10.6,0.4c-3,4.2-7.2,7.7-7.2,7.7c-5.6,3.1-11.4,5.8-17.3,8.3
			c-5.5,7.8,16.4-2.2,18.9-2.8c0,0,0,0.1,0.1,0.1c-5.1,4.4-10.4,8.5-16,12.1c-4.2,9.3,17.7-7,19.9-8.3c0,0,0,0,0,0
			c-4.1,4.9-8.8,9.4-13.9,13.2c-3,9.6,17.3-8.4,19.2-10.5c0,0,0,0,0.1,0c-2.6,4.3-5.8,8.3-9.2,12.1c-1.3,9,12.5-7.5,14.3-9.5
			c2.8-3.4,9.5-6.9,17-19.4c1.9-3.2-7.8-8.8-11.4-9.6c-4-0.9-10.1,0.9-11.7,1.4C1699,1326.1,1690.2,1325.9,1689.2,1330z"/>
		<path class="st24" d="M1618.1,1235.2c0,0-6.2-12.1,5.7-24.7C1623.8,1210.5,1630.6,1223.6,1618.1,1235.2z"/>
		<path class="st24" d="M1618.1,1235.2c0,0-2.2-11.6-14.2-11C1603.9,1224.2,1605.6,1235.4,1618.1,1235.2z"/>
		<path class="st24" d="M1618.1,1235.2c0,0,9.2-12,21.8-12.3C1639.9,1222.9,1636,1234.8,1618.1,1235.2z"/>
		<path class="st24" d="M1618.1,1235.2c0,0-8.7-1.9-13.6,5.8C1604.5,1240.9,1612.1,1243.6,1618.1,1235.2z"/>
		<path class="st24" d="M1618.1,1235.2c0,0-7.3,5-2.2,15.2C1615.9,1250.4,1624.2,1242.4,1618.1,1235.2z"/>
		<path class="st24" d="M1618.1,1235.2c0,0,4.2,9.4,19,6.9C1637.1,1242.1,1631.3,1231.6,1618.1,1235.2z"/>
		<path class="st30" d="M1587.1,1117.8c-0.1,0-0.2,0-0.3,0c-5.5-1.9-8.5-0.1-8.6-0.1c-0.4,0.2-0.9,0.1-1.2-0.3
			c-0.2-0.4-0.1-0.9,0.3-1.2c0.1-0.1,3.6-2.2,10-0.1c0.5,0.2,0.7,0.6,0.5,1.1C1587.8,1117.6,1587.5,1117.8,1587.1,1117.8z"/>
		<path class="st30" d="M1564.7,1122.4c-0.2,0-0.3-0.1-0.5-0.2c-0.4-0.3-0.5-0.8-0.2-1.2c0.1-0.1,2.4-3.3,7.4-3.5
			c0.4,0,0.9,0.3,0.9,0.8c0,0.5-0.3,0.9-0.8,0.9c-4.1,0.2-6,2.7-6.1,2.8C1565.3,1122.2,1565,1122.4,1564.7,1122.4z"/>
	</g>
	<g id="_x35_">
		<path class="st20" d="M740.7,1697.1l-1.1-0.6c0,0.8-1,3.5-1.7,3.5l-32.7,0.7c-0.8,0-1.3-1.5-1.3-2.2l-2.8-0.8
			c0-4.9,0.4-6.7,2.6-10.5c8-10.6-1.5-57.8-1.3-70.2c-2-3.4,34.5-0.7,35-1.5c0.8,0,1.5,0.7,1.4,1.5l-4.3,54
			C732.6,1681.2,740.5,1687.4,740.7,1697.1z"/>
		<path class="st20" d="M902.5,1701.8h-65.2c-5.7-0.2-5.6-6-4.6-10.5c3.6-16.2-2.8-53.5-3.9-70.1c-0.3-3.1,2.1-5.7,5.2-5.7
			c48.1-0.5,32.4-4.3,28.7,47.5c-2.8,18.1,18.8,21.6,31.1,23.6C901.9,1687.1,915.5,1698.2,902.5,1701.8z"/>
		<path class="st32" d="M830.3,1695c0.2,3.2,1.8,6.8,5.5,6.8c0,0,67.6,0,67.6,0c15.9-5.9-7.9-27.1-39.2-26.9
			C842,1680.9,829.6,1663.6,830.3,1695z"/>
		<path class="st32" d="M706.3,1701.8h28.9c14.1-1.9,3.9-28.9-14.4-27C702.3,1672.4,692.3,1699.9,706.3,1701.8z"/>
		<path class="st26" d="M887.2,1692.6c0.6,0,1.1-0.3,1.3-0.9c2.6-6.4,7.3-8.4,7.5-8.5c3.7-5.8-7-1.7-10.1,7.4
			C885.5,1691.6,886.3,1692.6,887.2,1692.6z"/>
		<path class="st26" d="M876.1,1691.3c0.6,0,1.2-0.4,1.4-1c2.3-7.4,8.8-10.9,8.8-10.9c3.3-6.7-9,0.5-11.6,10
			C874.4,1690.3,875.1,1691.3,876.1,1691.3z"/>
		<path class="st26" d="M863.4,1689.7c0.6,0,1.1-0.4,1.4-1c2.7-7.7,8.9-11.9,8.9-11.9C877.3,1666.9,857.1,1687.1,863.4,1689.7z"/>
		<path class="st26" d="M710.4,1683.4c8-4.9,20.3-0.5,20.4-0.1c8.4-1.8-11.4-8.9-21.1-2.5C708.4,1681.4,709,1683.4,710.4,1683.4z"/>
		<path class="st33" d="M908.1,1695h-77.8c0.3,2.4,0.9,4.7,2.1,6.8h70.9C906.9,1701.8,909.3,1698.3,908.1,1695z"/>
		<path class="st33" d="M706.3,1701.8h28.9c3.7,0,6.6-3.1,6.4-6.8h-41.7C699.7,1698.7,702.7,1701.8,706.3,1701.8z"/>
		<path class="st34" d="M867.8,1040.7c0,0,7.1-19.9-9.8-29.5l-12.8,6.6L867.8,1040.7z"/>
		<path class="st25" d="M856,1200.9c63.6,48.6,143.2,37.7,188.4,3.9l2.4-23.1c-104.1,8.1-129.9-48.8-196.4-72.1l7.2,21.5
			C857.6,1131.2,855.3,1199.4,856,1200.9z"/>
		<path class="st35" d="M871.1,1658.5c-24.5,9.2-51.7,2.2-51.7,2.2c0.3-3.3,0.7-6.7,0.9-10.1c9.3-114.7-21.7-276.4-24.9-288.2
			c0,0,0,0,0,0c-0.1-0.6-0.2-0.8-0.2-0.6c-20.4,133-40.5,243.2-50,294.7c-24.2,11.3-48.7-4.9-48.7-4.9c-0.1-4.6-0.3-9.2-0.4-13.7
			c-5.6-89.3,7.2-363.5,53.3-417c53.5,26.6,127.1,30.7,127.1,30.7C888.9,1485.3,888.3,1597,871.1,1658.5z"/>
		<path class="st20" d="M844,1107.2c3.1-16.1,10.5-45.2-1.7-52.3c-8.5-4.7-20.6,1.2-19.5,11.9c0.9-0.4-1.4,29.2-4.6,37
			C793.1,1107,861.2,1142.8,844,1107.2z"/>
		<path class="st28" d="M822.8,1065.5c0,0.5,0,0.9,0,1.4c0.7-0.3-0.4,16.1-2.3,27.8c10.1,6.8,22.7,6.7,25.1,6.6
			c1.8-17.2,8.4-38.4-3.2-46.3C834.4,1049.8,822.9,1055.9,822.8,1065.5z"/>
		<path class="st36" d="M854.7,1653.9c30.3-141.2-0.5-326.5-5.1-327.9C847.2,1327.1,874.1,1513.4,854.7,1653.9z"/>
		<path class="st36" d="M721.8,1655.8c24.5-155,51.8-335.1,48.4-337.8C766.6,1318.5,738.8,1502,721.8,1655.8z"/>
		<path class="st20" d="M807.4,1051.8c-0.1,11.7,1.6,25.3,9.4,34.4h0c0.3,0.4,0.6,0.7,1,1.1c0,0,0,0,0,0
			c11.7,11.1,30.3,13.1,45.2,4.6h0c12-7.9,17.4-20.4,13.7-31.3c-2.6-6.5-8.2-12.8-8.9-19.8C863.9,998,807.6,1006.4,807.4,1051.8z"/>
		<path class="st30" d="M852.2,1052.1c1.4-1.8-1.5-3.9-2.8-2.1C848,1051.8,850.9,1054,852.2,1052.1z"/>
		<path class="st30" d="M867.2,1052.1c1.4-1.8-1.5-3.9-2.8-2.1C863,1051.9,865.9,1054,867.2,1052.1z"/>
		<path class="st28" d="M807.4,1051.8c-0.1,11.7,1.6,25.3,9.4,34.4h0c0.3,0.4,0.6,0.7,1,1.1c-9.2-18.4-6.7-22.2-2.6-35
			c13.6-9.6,13.1-22.8,25.8-22.8c12.7,0,23.1-1.7,23.1-1.7C849.8,997.4,807.2,1015,807.4,1051.8z"/>
		<path class="st30" d="M860.6,1066.4c2.9-0.1,6.6-1.4,3.5-4.4c-3-2.3-4.2-9.5-4.2-9.6c-3-2.8,0,8,3.4,10.6c2.3,2-3.3,2.6-5.4,1.5
			C854.9,1065,859.3,1066.8,860.6,1066.4z"/>
		<path class="st32" d="M723,1300.4c35.6,27,120.2,34,155.8,21.1c12-5.1,13.7-45.5,12.3-85.2c-2.1-52.9-15-91.1-39.4-126.5
			c-0.3-0.1-4.9-2.2-7.6-2.6c0.1,4.8-1,18.8-25.8-3.4c-0.1,0.1-7.4-0.9-9.7,0.1c-2.4,1.8-29.2,19.3-29.9,22.1
			c-2,8.5-11.1,29.5-21,54c-11.5,28.6-23.2,58-28.2,84.8C727.5,1275.9,716,1289.9,723,1300.4z"/>
		<path class="st36" d="M830.3,1649.2l-9.9,1.4c9.3-114.7-21.7-276.4-24.9-288.2c1.9,4.7,14.6,37.1,24,97.4
			C829.6,1525.1,832.8,1616,830.3,1649.2z"/>
		<path class="st34" d="M805.4,1036c4-33.6,24.8-32.6,24.8-32.6l0,0c17.9-23.8,57.8-11.9,41.2,14.9c-9.4,16.5-33.5-1.9-47.7,19.2
			c-5.7,8.5-9.3,13.7-19.2,18.1C804.4,1055.6,803.1,1045.1,805.4,1036z"/>
		<path class="st20" d="M799.1,1056.4c0.4,13.4,17.3,12.7,16.6-0.7C815.3,1042.3,798.4,1043,799.1,1056.4z"/>
		<path class="st30" d="M802.9,1059.8c0.4,0,0.7-0.4,0.7-0.8c-0.5-4.1,0-6.7,1.4-7.7c2.9-1.6,5,1.6,6.1,0.4c0.5-1.4-3.8-3.1-6.8-1.5
			C802.7,1050.9,800.6,1056.6,802.9,1059.8z"/>
		<path class="st30" d="M860.2,1075.9c2.4,0.2,4.5-1,2.4-1.6c-0.3,0.1-6.8,1.7-13.6-4.6c-0.3-0.2-0.7-0.2-0.9,0
			C850,1074.9,858.2,1075.9,860.2,1075.9z"/>
		<path class="st25" d="M809,1104.1c8.2,13.9,44.2,35.6,42.7,5.8c-0.3-0.1-4.9-2.2-7.6-2.6c0.1,0.8,1.5,21.3-25.8-3.4
			C818.3,1104.1,811,1102.8,809,1104.1z"/>
		<path class="st36" d="M819.4,1660.7c0,0,27.2,7,51.7-2.2l3.2-12.9c0,0-30.7,10.6-53.5-1.1C820.4,1649.9,819.9,1655.3,819.4,1660.7
			z"/>
		<path class="st36" d="M696.2,1637.9c0.1,4.5,0.2,9.1,0.4,13.7c0,0,24.5,16.2,48.7,4.9c0,0,0.8-4.2,2.2-12
			C747.4,1644.5,721.4,1652.3,696.2,1637.9z"/>
		<path class="st25" d="M809,1104.1c0,0-72,5.5-91.1,89.3c-16.5,72.3,22,113,96.4,133.2c0,0,2.3-9.2,12.3-12.1
			c0,0-35.6-27.5-44.6-60.4c-9-32.9-0.6-71.3,12.5-99C794.5,1155.1,814.1,1124.9,809,1104.1z"/>
		
			<rect x="705.9" y="1270.4" transform="matrix(0.8074 -0.59 0.59 0.8074 -579.7657 790.8806)" class="st23" width="431.4" height="26.3"/>
		
			<rect x="725.7" y="1331" transform="matrix(0.8074 -0.59 0.59 0.8074 -631.5349 753.5929)" class="st24" width="225.8" height="26.3"/>
		
			<ellipse transform="matrix(0.7071 -0.7071 0.7071 0.7071 -393.6728 1177.3955)" class="st37" cx="1224.4" cy="1063.9" rx="158.4" ry="158.4"/>
		<path class="st38" d="M1385.9,1121.5c-5.6,15.7-13.4,30.6-23.5,44.3l-9.4-9.4l-9.5-9.5l-202.1-202.1l-18.9-18.9
			c0.6-0.4,1.2-0.9,1.8-1.3c13.4-9.6,27.6-17,42.4-22.2l10.4,10.4l10.7,10.7h0l177,177l10.7,10.7L1385.9,1121.5z"/>
		<path class="st38" d="M1346.6,1184.3c-6.7,6.8-14.1,13.2-22.2,19c-13.8,9.9-28.5,17.4-43.8,22.7l-10.4-10.4l-10.7-10.7l-176-176
			l-10.7-10.7l-10.5-10.5c8.6-25,22.8-47.4,41.7-65.9l18.6,18.6l205.3,205.4l9.3,9.3L1346.6,1184.3z"/>
		<path class="st24" d="M1363.7,963.9c-87.4-124.1-286.5-75.7-308.6,72.3c-24.7,124.2,109.4,234.9,225.6,189.8
			C1386.1,1191.5,1431.5,1055,1363.7,963.9z M1364.9,1100.4c-12.2,50.2-55.2,92.7-105.4,104.4c-141.2,35.7-242-141.5-136.9-244.5
			C1226.5,857.9,1402.1,959.6,1364.9,1100.4z"/>
		<path class="st20" d="M1059.4,1203.2c6.7,5.4,12.6-3.9,3.3-5l0.1,0.1C1059.1,1195.4,1055.9,1200.6,1059.4,1203.2z"/>
		<path class="st20" d="M1064.1,1199.8c8.7,4.7,11.2-7.1,2.8-5.5c0.2,0-0.8-0.2-0.6-0.2C1062,1192,1060.3,1198,1064.1,1199.8z"/>
		<path class="st20" d="M1069.1,1196.4l3.2,0.6c4.5,0.7,3.9-5.9,0.1-6.4c0,0-3.2-0.6-3.2-0.6
			C1064.7,1189.3,1065.3,1195.9,1069.1,1196.4z"/>
		<path class="st20" d="M1073,1192.7l3.2,0.6c4.5,0.7,3.9-5.9,0.1-6.4c0,0-3.2-0.6-3.2-0.6C1068.6,1185.7,1069.2,1192.3,1073,1192.7
			z"/>
		<path class="st20" d="M852.8,1318.9l-6.3,4.6c0,0,0.1,0.1,0.1,0.1c2.7,4.2,6.4,7.6,10.7,10.1c4.2,2.4,8.3,4.8,12.9,6.7
			c6,9-18.7-1.9-21.7-2.5c0,0.1,0,0-0.1,0.1c5.7,5,11.6,9.6,18,13.7c4.1,10.8-19.8-7.4-22.6-9c0,0,0,0,0,0
			c4.5,5.6,9.7,10.7,15.4,15.1c3.1,11.3-19.6-9.1-21.8-11.6c0,0-0.1,0-0.1,0c2.8,5,6.4,9.6,10.1,14c1.5,11.1-15.6-9.7-17.3-12.2
			c-1.8-1-10.6-9.3-15.9-21.3c-1.7-3.9,8.8-14.3,12.3-12.1c2.6,1.6,11.2,1.6,13,2.2C843.9,1317.3,848.4,1317.2,852.8,1318.9z"/>
		<path class="st30" d="M844.4,1047.6c0.2,0,0.4-0.1,0.5-0.2c3.5-3.9,8.7-3.6,8.8-3.6c0.3,0,0.7-0.3,0.7-0.6c0-0.4-0.3-0.7-0.6-0.7
			c-0.2,0-5.9-0.3-9.8,4c-0.2,0.3-0.2,0.7,0,0.9C844.1,1047.5,844.3,1047.6,844.4,1047.6z"/>
		<path class="st30" d="M867.5,1045.7c0.2,0,0.4-0.1,0.5-0.2c0.2-0.3,0.2-0.7-0.1-0.9c-0.1-0.1-3.6-2.8-7.8-2
			c-0.4,0.1-0.6,0.4-0.5,0.8c0.1,0.4,0.4,0.6,0.8,0.5c3.7-0.6,6.8,1.8,6.8,1.8C867.3,1045.6,867.4,1045.7,867.5,1045.7z"/>
		<path class="st25" d="M838.5,1150c11.2,0,17.5-2.1,17.9-2.2l-1.4-4.1c-0.1,0-13.6,4.5-36.5-0.1l-0.8,4.2
			C825.8,1149.5,832.8,1150,838.5,1150z"/>
		<path class="st25" d="M836.7,1166.6c14,0,22.4-3.3,22.9-3.5l-1.6-4c-0.2,0.1-15.5,6-39.4,1.4l-0.8,4.2
			C824.8,1166.1,831.2,1166.6,836.7,1166.6z"/>
		<path class="st25" d="M839.4,1182.9c12.6,0,21.2-3.5,21.7-3.8l-1.7-4c-0.2,0.1-18.6,7.6-40.5,0l-1.4,4.1
			C825.4,1182,832.9,1182.9,839.4,1182.9z"/>
		<path class="st30" d="M809.3,1060.8c-0.4,0-0.7-0.3-0.8-0.7c0-0.1-0.5-5.8-4.9-7.6c-0.4-0.2-0.6-0.6-0.4-1c0.2-0.4,0.6-0.6,1-0.4
			c5.3,2.2,5.8,8.6,5.8,8.9C810.1,1060.4,809.8,1060.8,809.3,1060.8C809.4,1060.8,809.4,1060.8,809.3,1060.8z"/>
	</g>
</g>
</svg>
