<?xml version="1.0" encoding="utf-8"?>
<!-- Generator: Adobe Illustrator 23.0.5, SVG Export Plug-In . SVG Version: 6.00 Build 0)  -->
<svg version="1.1" id="Layer_1" xmlns="http://www.w3.org/2000/svg" xmlns:xlink="http://www.w3.org/1999/xlink" x="0px" y="0px"
	 viewBox="0 0 122.6 32.5" style="enable-background:new 0 0 122.6 32.5;" xml:space="preserve">
<style type="text/css">
	.st0{fill:#B9F200;}
	.st1{fill:#1C1C1C;}
	.st2{fill:#565656;}
</style>
<path class="st1" d="M106.9,2c-8.3,0-15.1,6.8-15.1,15.1c0,8.3,6.8,15.1,15.1,15.1S122,25.4,122,17.1C122,8.8,115.2,2,106.9,2z
	 M108.1,18.8c0,0.2-0.1,0.3-0.2,0.5c-0.1,0.1-0.3,0.2-0.5,0.2h-1c-0.2,0-0.3-0.1-0.5-0.2c-0.1-0.1-0.2-0.3-0.2-0.5v-1
	c0-0.2,0.1-0.3,0.2-0.5c0.1-0.1,0.3-0.2,0.5-0.2h1c0.2,0,0.3,0.1,0.5,0.2c0.1,0.1,0.2,0.3,0.2,0.5V18.8z M109.6,24.1v-2.3h2.6
	l-5.3-10.6l-5.3,10.6h2.7v2.3h-6.5l8.4-16.7h1.4l8.4,16.7H109.6z"/>
<g>
	<path class="st1" d="M9.7,25.8c-1.6,0-3-0.2-4.3-0.6c-1.3-0.4-2.4-1-3.4-1.8l0.8-1.9c1,0.8,2,1.3,3.1,1.7c1.1,0.4,2.3,0.5,3.8,0.5
		c1.7,0,3-0.3,3.9-1s1.3-1.5,1.3-2.6c0-0.8-0.3-1.5-0.9-2c-0.6-0.5-1.6-0.9-3-1.2l-3-0.6c-1.8-0.4-3.2-1-4.1-1.9
		c-0.9-0.9-1.3-2-1.3-3.5c0-1.2,0.3-2.3,0.9-3.2S4.8,6.1,6,5.6c1.1-0.5,2.4-0.8,3.9-0.8c1.4,0,2.6,0.2,3.8,0.7
		c1.2,0.4,2.2,1.1,3,1.9l-0.8,1.8C14.9,8.4,14,7.9,13,7.5S11,7,9.8,7C8.3,7,7.1,7.3,6.2,8c-0.9,0.7-1.4,1.6-1.4,2.8
		c0,0.9,0.3,1.7,0.9,2.2c0.6,0.5,1.5,0.9,2.8,1.2l3,0.6c1.9,0.4,3.4,1,4.3,1.8c0.9,0.8,1.4,1.9,1.4,3.3c0,1.1-0.3,2.1-0.9,3
		c-0.6,0.9-1.5,1.5-2.6,2C12.5,25.5,11.2,25.8,9.7,25.8z"/>
	<path class="st1" d="M26.1,25.8c-1.7,0-2.9-0.4-3.7-1.3c-0.8-0.9-1.2-2.1-1.2-3.8v-7.4h-2.7v-1.8h2.7V7.2h2.3v4.3h4.4v1.8h-4.4v7.1
		c0,1.1,0.2,1.9,0.7,2.5c0.5,0.6,1.2,0.9,2.3,0.9c0.3,0,0.6,0,0.9-0.1c0.3-0.1,0.6-0.2,0.8-0.2l0.4,1.8c-0.3,0.1-0.6,0.3-1.1,0.4
		C27,25.7,26.5,25.8,26.1,25.8z"/>
	<path class="st1" d="M36.8,25.8c-2.2,0-4-0.7-5.3-2c-1.3-1.3-1.9-3.1-1.9-5.3c0-1.4,0.3-2.7,0.9-3.8c0.6-1.1,1.4-2,2.4-2.6
		c1-0.6,2.2-0.9,3.5-0.9c1.9,0,3.4,0.6,4.5,1.8s1.6,2.9,1.6,5V19H31.9c0.1,1.6,0.5,2.8,1.4,3.7s2,1.3,3.5,1.3c0.8,0,1.7-0.1,2.4-0.4
		c0.8-0.3,1.5-0.7,2.2-1.3l0.8,1.6c-0.6,0.6-1.4,1.1-2.4,1.4S37.8,25.8,36.8,25.8z M36.4,12.9c-1.3,0-2.4,0.4-3.1,1.2
		c-0.8,0.8-1.2,1.9-1.4,3.3h8.5c-0.1-1.4-0.4-2.5-1.1-3.3C38.6,13.3,37.6,12.9,36.4,12.9z"/>
	<path class="st1" d="M50.1,25.8c-1.4,0-2.5-0.4-3.2-1.3s-1.1-2.1-1.1-3.7V5.1h2.3v15.5c0,2.1,0.8,3.1,2.5,3.1
		c0.5,0,0.9-0.1,1.3-0.2l-0.1,2C51.3,25.7,50.7,25.8,50.1,25.8z"/>
	<path class="st1" d="M58.7,25.8c-1.4,0-2.5-0.4-3.2-1.3s-1.1-2.1-1.1-3.7V5.1h2.3v15.5c0,2.1,0.8,3.1,2.5,3.1
		c0.5,0,0.9-0.1,1.3-0.2l-0.1,2C59.8,25.7,59.2,25.8,58.7,25.8z"/>
	<path class="st1" d="M67.3,25.8c-1,0-1.8-0.2-2.6-0.6c-0.8-0.4-1.4-0.9-1.8-1.5s-0.7-1.4-0.7-2.2c0-1,0.3-1.8,0.8-2.4
		c0.5-0.6,1.4-1,2.6-1.3c1.2-0.3,2.9-0.4,5-0.4h0.9v-0.9c0-1.2-0.2-2.1-0.7-2.6s-1.3-0.8-2.4-0.8c-0.8,0-1.7,0.1-2.5,0.4
		c-0.8,0.2-1.6,0.6-2.4,1.2l-0.8-1.7c0.7-0.5,1.6-0.9,2.7-1.2c1-0.3,2.1-0.5,3-0.5c1.8,0,3.2,0.4,4,1.3c0.9,0.9,1.3,2.3,1.3,4.1v8.8
		h-2.2v-2.4c-0.4,0.8-0.9,1.5-1.7,2C69.2,25.5,68.4,25.8,67.3,25.8z M67.7,24c1.2,0,2.1-0.4,2.8-1.2c0.7-0.8,1.1-1.8,1.1-3v-0.9
		h-0.9c-1.6,0-2.8,0.1-3.7,0.2s-1.5,0.4-1.9,0.8s-0.5,0.8-0.5,1.5c0,0.8,0.3,1.4,0.8,1.9C66,23.8,66.8,24,67.7,24z"/>
	<path class="st1" d="M78.2,25.5v-14h2.3V14c0.8-1.7,2.3-2.6,4.6-2.8l0.8-0.1l0.2,2l-1.5,0.2c-1.3,0.1-2.3,0.5-3,1.3
		c-0.7,0.7-1,1.7-1,3v8H78.2z"/>
</g>
</svg>
