<svg xmlns="http://www.w3.org/2000/svg" xmlns:xlink="http://www.w3.org/1999/xlink" viewBox="0 0 3242.17 3247.58"><defs><linearGradient id="linear-gradient" x1="3665.73" y1="3803.72" x2="1366.61" y2="1322.12" gradientUnits="userSpaceOnUse"><stop offset="0" stop-color="#b37cff"/><stop offset="1" stop-color="#f895e7"/></linearGradient><linearGradient id="linear-gradient-2" x1="1775.07" y1="2201.62" x2="1578.84" y2="1461.99" gradientUnits="userSpaceOnUse"><stop offset="0" stop-color="#41a362"/><stop offset="1" stop-color="#204f2e"/></linearGradient><linearGradient id="linear-gradient-3" x1="1307.11" y1="1988.65" x2="1910.87" y2="1988.65" xlink:href="#linear-gradient-2"/><linearGradient id="linear-gradient-4" x1="793.66" y1="1666" x2="1910.87" y2="1666" xlink:href="#linear-gradient-2"/><linearGradient id="linear-gradient-5" x1="1017.82" y1="1276.87" x2="1910.87" y2="1276.87" xlink:href="#linear-gradient-2"/><linearGradient id="linear-gradient-6" x1="1473.73" y1="1251.39" x2="1930.49" y2="2100.5" xlink:href="#linear-gradient-2"/><linearGradient id="linear-gradient-7" x1="1292.01" y1="1332.03" x2="1420.84" y2="1876.63" xlink:href="#linear-gradient-2"/><linearGradient id="linear-gradient-8" x1="1354.7" y1="2243.14" x2="1600.65" y2="2003.05" xlink:href="#linear-gradient-2"/><linearGradient id="linear-gradient-9" x1="1922.8" y1="1988.65" x2="2526.55" y2="1988.65" xlink:href="#linear-gradient-2"/><linearGradient id="linear-gradient-10" x1="1922.8" y1="1666" x2="3040.01" y2="1666" xlink:href="#linear-gradient-2"/><linearGradient id="linear-gradient-11" x1="1922.8" y1="1276.87" x2="2815.85" y2="1276.87" xlink:href="#linear-gradient-2"/><linearGradient id="linear-gradient-12" x1="2620.29" y1="711.93" x2="2075.69" y2="1824.55" xlink:href="#linear-gradient-2"/><linearGradient id="linear-gradient-13" x1="2400.47" y1="1451.26" x2="2646.42" y2="2353.06" xlink:href="#linear-gradient-2"/><linearGradient id="linear-gradient-14" x1="2371.89" y1="2593.09" x2="2067.38" y2="1445.33" xlink:href="#linear-gradient-2"/><linearGradient id="linear-gradient-15" x1="1778.65" y1="1021.2" x2="2070.16" y2="1021.2" xlink:href="#linear-gradient-2"/><linearGradient id="linear-gradient-16" x1="2199.3" y1="-40.4" x2="1912.36" y2="1142.49" xlink:href="#linear-gradient-2"/><linearGradient id="linear-gradient-17" x1="2456.96" y1="4586.91" x2="1620.53" y2="1434.23" gradientUnits="userSpaceOnUse"><stop offset="0" stop-color="#fdf53f"/><stop offset="1" stop-color="#d93c65"/></linearGradient><linearGradient id="linear-gradient-18" x1="1881.64" y1="2995.12" x2="1509.76" y2="1593.43" xlink:href="#linear-gradient-17"/><linearGradient id="linear-gradient-19" x1="-573.23" y1="3346.2" x2="-1059.56" y2="3875.19" gradientTransform="matrix(-1, 0, 0, 1, 2359.87, 0)" gradientUnits="userSpaceOnUse"><stop offset="0" stop-color="#cb236d"/><stop offset="1" stop-color="#4c246d"/></linearGradient><linearGradient id="linear-gradient-20" x1="-731.08" y1="3385.49" x2="-687.88" y2="3385.49" gradientTransform="matrix(-1, 0, 0, 1, 2359.87, 0)" gradientUnits="userSpaceOnUse"><stop offset="0" stop-color="#f9b776"/><stop offset="1" stop-color="#f47960"/></linearGradient><linearGradient id="linear-gradient-21" x1="-614.77" y1="3372" x2="-884.67" y2="2657.73" gradientTransform="matrix(-1, 0, 0, 1, 2359.87, 0)" gradientUnits="userSpaceOnUse"><stop offset="0" stop-color="#2b3582"/><stop offset="1" stop-color="#150e42"/></linearGradient><linearGradient id="linear-gradient-22" x1="-682.33" y1="3245.9" x2="-1168.66" y2="3774.89" xlink:href="#linear-gradient-19"/><linearGradient id="linear-gradient-23" x1="-886.77" y1="3383.28" x2="-849.47" y2="3383.28" xlink:href="#linear-gradient-20"/><linearGradient id="linear-gradient-24" x1="-926.97" y1="3050.51" x2="-724.19" y2="3050.51" xlink:href="#linear-gradient-21"/><linearGradient id="linear-gradient-25" x1="-984.63" y1="2661.62" x2="-304.9" y2="2172.44" xlink:href="#linear-gradient-19"/><linearGradient id="linear-gradient-26" x1="-553.32" y1="2258.5" x2="-332.63" y2="2258.5" xlink:href="#linear-gradient-20"/><linearGradient id="linear-gradient-27" x1="10829.57" y1="2221.51" x2="10977.66" y2="2558.45" gradientTransform="translate(-8087.91)" xlink:href="#linear-gradient-20"/><linearGradient id="linear-gradient-28" x1="-333.69" y1="2109.3" x2="-271.9" y2="2014.29" xlink:href="#linear-gradient-20"/><linearGradient id="linear-gradient-29" x1="-1074.2" y1="2537.16" x2="-394.48" y2="2047.99" xlink:href="#linear-gradient-19"/><linearGradient id="linear-gradient-30" x1="-1036.24" y1="2571.11" x2="-756.95" y2="2571.11" xlink:href="#linear-gradient-20"/><linearGradient id="linear-gradient-31" x1="3106.38" y1="2399.57" x2="2210.8" y2="3365.86" gradientUnits="userSpaceOnUse"><stop offset="0" stop-color="#53d8ff"/><stop offset="1" stop-color="#3840f7"/></linearGradient><linearGradient id="linear-gradient-32" x1="-576.31" y1="2271.68" x2="-609.02" y2="2415.3" gradientTransform="matrix(-1, 0, 0, 1, 2359.87, 0)" xlink:href="#linear-gradient-31"/><linearGradient id="linear-gradient-33" x1="-593.43" y1="2331.93" x2="-609.07" y2="2425.78" gradientTransform="matrix(-1, 0, 0, 1, 2359.87, 0)" xlink:href="#linear-gradient-31"/><linearGradient id="linear-gradient-34" x1="-777.69" y1="2541.82" x2="-690.68" y2="2541.82" xlink:href="#linear-gradient-20"/><linearGradient id="linear-gradient-35" x1="-821.79" y1="2272.53" x2="-711.37" y2="2272.53" xlink:href="#linear-gradient-20"/><linearGradient id="linear-gradient-36" x1="-6337.05" y1="-1627.87" x2="-6378.32" y2="-1763.96" gradientTransform="matrix(-0.75, -0.67, -0.67, 0.75, -2766.47, -803.17)" xlink:href="#linear-gradient-20"/><linearGradient id="linear-gradient-37" x1="-6374.28" y1="-1864.99" x2="-6339.77" y2="-1668.12" gradientTransform="matrix(-0.75, -0.67, -0.67, 0.75, -2766.47, -803.17)" xlink:href="#linear-gradient-21"/><linearGradient id="linear-gradient-38" x1="-6379.24" y1="-1628.5" x2="-6416.36" y2="-1750.95" gradientTransform="matrix(-0.75, -0.67, -0.67, 0.75, -2766.47, -803.17)" xlink:href="#linear-gradient-20"/><linearGradient id="linear-gradient-39" x1="1526.41" y1="2080.59" x2="1258.16" y2="2677.51" gradientTransform="translate(-150.56 -192.4) rotate(15.59)" xlink:href="#linear-gradient-20"/><linearGradient id="linear-gradient-40" x1="1267.82" y1="1398.57" x2="299.88" y2="2346.62" gradientTransform="translate(-792.55 1103.75) rotate(-41.45)" gradientUnits="userSpaceOnUse"><stop offset="0" stop-color="#a737d5"/><stop offset="1" stop-color="#ef497a"/></linearGradient><linearGradient id="linear-gradient-41" x1="658.46" y1="1983.91" x2="1671.99" y2="1990.32" gradientTransform="matrix(1, 0, 0, 1, 0, 0)" xlink:href="#linear-gradient-40"/><linearGradient id="linear-gradient-42" x1="723.43" y1="1101.31" x2="-123.32" y2="2769.14" gradientTransform="matrix(1, 0, 0, 1, 0, 0)" xlink:href="#linear-gradient-40"/><linearGradient id="linear-gradient-43" x1="647.16" y1="2769.56" x2="865.26" y2="1364.74" gradientTransform="matrix(1, 0, 0, 1, 0, 0)" xlink:href="#linear-gradient-40"/><linearGradient id="linear-gradient-44" x1="967.16" y1="2768.24" x2="1672.78" y2="2056.2" gradientTransform="matrix(1, 0, 0, 1, 0, 0)" xlink:href="#linear-gradient-40"/><linearGradient id="linear-gradient-45" x1="-1318.58" y1="3240.51" x2="-1127.47" y2="3240.51" gradientTransform="matrix(-1, 0, 0, 1, -829.1, 0)" xlink:href="#linear-gradient-20"/><linearGradient id="linear-gradient-46" x1="-1055.89" y1="2813.12" x2="-1150.54" y2="3428.31" gradientTransform="matrix(-1, 0, 0, 1, -829.1, 0)" xlink:href="#linear-gradient-31"/><linearGradient id="linear-gradient-47" x1="946.43" y1="2537.4" x2="90.09" y2="3433.02" xlink:href="#linear-gradient-31"/><linearGradient id="linear-gradient-48" x1="-1256.15" y1="2782.31" x2="-1350.79" y2="3397.5" gradientTransform="matrix(-1, 0, 0, 1, -829.1, 0)" xlink:href="#linear-gradient-31"/><linearGradient id="linear-gradient-49" x1="-1434.55" y1="3254.72" x2="-1323.88" y2="3254.72" gradientTransform="matrix(-1, 0, 0, 1, -829.1, 0)" xlink:href="#linear-gradient-20"/><linearGradient id="linear-gradient-50" x1="45.34" y1="2558.19" x2="190.18" y2="2869.6" gradientTransform="matrix(-1, 0, 0, 1, 641, 0)" xlink:href="#linear-gradient-17"/><linearGradient id="linear-gradient-51" x1="904.59" y1="2497.39" x2="48.25" y2="3393.02" xlink:href="#linear-gradient-31"/><linearGradient id="linear-gradient-52" x1="-1401" y1="2530.78" x2="-1333.27" y2="2530.78" gradientTransform="matrix(-1, 0, 0, 1, -829.1, 0)" xlink:href="#linear-gradient-20"/><linearGradient id="linear-gradient-53" x1="-1293.36" y1="2443.26" x2="-800.42" y2="2476.78" gradientTransform="matrix(-1, 0, 0, 1, -829.1, 0)" xlink:href="#linear-gradient-20"/><linearGradient id="linear-gradient-54" x1="-111.61" y1="2506.59" x2="239.15" y2="3032.73" gradientTransform="matrix(-1, 0, 0, 1, 641, 0)" xlink:href="#linear-gradient-20"/><linearGradient id="linear-gradient-55" x1="2505.19" y1="2396.61" x2="2271" y2="2851.25" gradientTransform="translate(-1961.17)" xlink:href="#linear-gradient-21"/><linearGradient id="linear-gradient-56" x1="1041.91" y1="2628.69" x2="185.57" y2="3524.32" xlink:href="#linear-gradient-31"/><linearGradient id="linear-gradient-57" x1="1097.78" y1="2226.38" x2="316.07" y2="2894.17" xlink:href="#linear-gradient-31"/></defs><title>water</title><g id="Illustration"><path d="M3345.33,2389.55C3029.42,3128,2195.5,3445.13,1542.11,3391.06c-178.4-14.77-537.35-44.48-817.62-309.52-538.23-509-455.34-1572.94,59.91-2199.32C850.75,801.55,1310,261.1,2025.75,268.33c524,5.3,891.8,301.3,936.53,338.18,56.49,46.58,181.1,157.28,293.4,332.9C3519.55,1352.06,3542.75,1928.11,3345.33,2389.55Z" transform="translate(-233.92 -231.21)" style="opacity:0.30000000000000004;fill:url(#linear-gradient)"/><rect x="1654.61" y="1441.89" width="44.68" height="779.84" style="fill:url(#linear-gradient-2)"/><path d="M1315.13,2119.85c106.35-101.87,353.36-309.69,595.74-306.62,0,0-134.78,273.19-573.36,350.44C1312.43,2168.08,1296.74,2137.46,1315.13,2119.85Z" transform="translate(-233.92 -231.21)" style="fill:url(#linear-gradient-3)"/><path d="M819.77,1499.73c187.41-9.13,729.85-4.67,1091.1,313.5,0,0-621.86,132.71-1107.19-265C784.33,1532.38,794.78,1501,819.77,1499.73Z" transform="translate(-233.92 -231.21)" style="fill:url(#linear-gradient-4)"/><path d="M1058.38,744.21c199.66,115.06,852.49,532.29,852.49,1069,0,0-692.67-407.23-891.73-1037.49C1011.73,752.28,1037.06,731.92,1058.38,744.21Z" transform="translate(-233.92 -231.21)" style="fill:url(#linear-gradient-5)"/><path d="M1139.24,879.56c67.52,70.52,133,142.76,197.71,215.69,16.3,18.13,32.27,36.53,48.35,54.84l48.13,55c31.73,37,63.79,73.7,95.24,110.93q94.65,111.45,187.6,224.33c61.82,75.38,123.08,151.25,182.5,228.67a5.47,5.47,0,0,1-8.3,7.09c-67.16-70.82-132.49-143.2-197.26-216.07S1564.54,1413.61,1501,1339.65c-31.85-36.89-63.07-74.31-94.64-111.44l-46.82-56.15c-15.56-18.76-31.23-37.42-46.59-56.35-61.89-75.32-123-151.33-182-229.06a5.47,5.47,0,0,1,8.3-7.09Z" transform="translate(-233.92 -231.21)" style="fill:url(#linear-gradient-6)"/><path d="M888.3,1549.34c82.28,14.37,163.9,31.4,245.3,49.32,81.44,17.76,162.54,36.91,243.46,56.75s161.63,40.62,242,62.77c80.4,22,160.55,45,240,70.79a4.07,4.07,0,0,1-2,7.89c-82.33-14.13-164-31-245.37-49-81.43-17.78-162.51-37-243.39-57s-161.55-40.89-241.9-63.07c-80.39-22-160.56-44.92-240.07-70.49a4.07,4.07,0,0,1,1.94-7.88Z" transform="translate(-233.92 -231.21)" style="fill:url(#linear-gradient-7)"/><path d="M1368.64,2122.45c41.06-26.53,82.71-52.06,124.49-77.34q31.36-18.91,62.89-37.55t63.19-37l31.66-18.4,31.82-18.13c21.16-12.17,42.59-23.89,63.9-35.8,42.86-23.42,85.85-46.61,129.76-68.2a4.07,4.07,0,0,1,4.05,7c-40.7,27.16-82.33,52.7-124.09,78-21,12.46-41.89,25.11-63,37.3l-31.64,18.43-31.8,18.16q-31.77,18.22-63.73,36.09t-64,35.55c-42.84,23.46-85.81,46.68-129.37,68.88a4.07,4.07,0,0,1-4-7Z" transform="translate(-233.92 -231.21)" style="fill:url(#linear-gradient-8)"/><path d="M2518.54,2119.85c-106.35-101.87-353.36-309.69-595.74-306.62,0,0,134.77,273.19,573.36,350.44C2521.23,2168.08,2536.92,2137.46,2518.54,2119.85Z" transform="translate(-233.92 -231.21)" style="fill:url(#linear-gradient-9)"/><path d="M3013.9,1499.73c-187.41-9.13-729.85-4.67-1091.1,313.5,0,0,621.85,132.71,1107.18-265C3049.34,1532.38,3038.89,1501,3013.9,1499.73Z" transform="translate(-233.92 -231.21)" style="fill:url(#linear-gradient-10)"/><path d="M2775.29,744.21c-199.66,115.06-852.49,532.29-852.49,1069,0,0,692.67-407.23,891.73-1037.49C2821.94,752.28,2796.61,731.92,2775.29,744.21Z" transform="translate(-233.92 -231.21)" style="fill:url(#linear-gradient-11)"/><path d="M2702.73,886.65c-59.07,77.73-120.17,153.74-182.06,229.06-15.35,18.93-31,37.59-46.59,56.35l-46.81,56.15c-31.57,37.13-62.8,74.55-94.65,111.44-63.49,74-127.31,147.63-192.16,220.43s-130.1,145.25-197.26,216.07a5.47,5.47,0,0,1-8.31-7.09c59.43-77.42,120.69-153.29,182.51-228.67s124.5-150,187.6-224.33c31.44-37.23,63.51-73.94,95.24-110.93l48.12-55c16.09-18.31,32.06-36.71,48.35-54.84,64.7-72.93,130.19-145.17,197.72-215.69a5.47,5.47,0,0,1,8.3,7.09Z" transform="translate(-233.92 -231.21)" style="fill:url(#linear-gradient-12)"/><path d="M2947.31,1557.22c-79.51,25.57-159.68,48.47-240.07,70.49-80.35,22.18-161,43-241.91,63.07s-161.95,39.27-243.39,57c-81.38,18-163,34.9-245.37,49a4.07,4.07,0,0,1-1.94-7.89c79.45-25.81,159.59-48.82,240-70.79,80.35-22.15,161.06-42.88,242-62.77s162-39,243.47-56.75c81.4-17.92,163-35,245.29-49.32a4.07,4.07,0,0,1,1.95,7.88Z" transform="translate(-233.92 -231.21)" style="fill:url(#linear-gradient-13)"/><path d="M2461,2129.49c-43.55-22.2-86.53-45.42-129.36-68.88q-32.1-17.62-64-35.55T2203.84,1989L2172,1970.81l-31.64-18.43c-21.15-12.19-42-24.84-63-37.3-41.76-25.33-83.39-50.87-124.1-78a4.07,4.07,0,0,1,4.06-7c43.91,21.59,86.9,44.78,129.76,68.2,21.31,11.91,42.73,23.63,63.89,35.8l31.82,18.13,31.66,18.4q31.71,18.33,63.2,37t62.89,37.55c41.78,25.28,83.42,50.81,124.49,77.34a4.07,4.07,0,0,1-4.06,7Z" transform="translate(-233.92 -231.21)" style="fill:url(#linear-gradient-14)"/><path d="M1888.51,250C1827.72,447,1675.36,1066.09,1888,1792.1c7.32,25,40.51,25.6,48.88,1,73.57-216.43,259-887.43,0-1545C1927.65,224.67,1896,225.92,1888.51,250Z" transform="translate(-233.92 -231.21)" style="fill:url(#linear-gradient-15)"/><path d="M1927.11,403.83c4.17,57.88,6.7,115.76,9,173.64,1,28.93,2.25,57.87,2.91,86.81l2.22,86.82q3.48,173.64,2.43,347.27l-.51,86.82-1,86.82-1.13,86.82-1.73,86.81c-2.62,115.76-5.94,231.52-12.17,347.28a4.07,4.07,0,0,1-8.12,0c-6.22-115.76-9.54-231.52-12.16-347.28l-1.74-86.81L1904,1272l-1-86.82-.5-86.82q-.83-173.62,2.42-347.27l2.22-86.82c.67-28.94,2-57.88,2.91-86.81,2.29-57.88,4.83-115.76,9-173.64a4.07,4.07,0,0,1,8.12,0Z" transform="translate(-233.92 -231.21)" style="fill:url(#linear-gradient-16)"/><path d="M2536.24,2493.55H1297.43a881.89,881.89,0,0,0,55.13,306.91l216.51,583.25a111.11,111.11,0,0,0,104.18,72.46h487.17a111.12,111.12,0,0,0,104.18-72.46l216.51-583.25a881.89,881.89,0,0,0,55.13-306.91Z" transform="translate(-233.92 -231.21)" style="fill:url(#linear-gradient-17)"/><rect x="986.34" y="2160.8" width="1393.15" height="170.59" rx="18.9" style="fill:url(#linear-gradient-18)"/><path d="M3086.82,3385.61s5,28.51,7.51,56.74a19.44,19.44,0,0,1-18.6,21.06c-37.59,1.57-118,4.61-146.84,3.33a6.33,6.33,0,0,1-5.57-8.67h0a14.17,14.17,0,0,1,7.25-7.63l132.8-61Z" transform="translate(-233.92 -231.21)" style="fill:url(#linear-gradient-19)"/><path d="M3091,3368.85l-4,34.11s-23.26,10.83-39.15-1.37l9.63-38Z" transform="translate(-233.92 -231.21)" style="fill:url(#linear-gradient-20)"/><path d="M3087.91,2727.67c1.75,8.91,9.38,444.45-37.18,639.63a6.62,6.62,0,0,0,3.89,7.7,115.43,115.43,0,0,0,37.91,7.71,11.41,11.41,0,0,0,11.32-8.19c13.31-45.29,77.08-272.18,85.4-488.92,9.29-242.19,0-8.24,0-8.24l-5.45-149.71Z" transform="translate(-233.92 -231.21)" style="fill:url(#linear-gradient-21)"/><path d="M3239.59,3400.48s8,14.4,15.78,52.65a11.85,11.85,0,0,1-10.44,14.2c-12.41,1.22-31.52,2.79-46.82,2.69a11.83,11.83,0,0,1-11.71-13.2c1.69-14,7-36.86,23.29-54.72Z" transform="translate(-233.92 -231.21)" style="fill:url(#linear-gradient-22)"/><path d="M3246.63,3356.62l-9.45,51.57s-9.35,7-27.84,1.91l4.51-55.49Z" transform="translate(-233.92 -231.21)" style="fill:url(#linear-gradient-23)"/><path d="M3272.18,2741c38.07,229.8-8.26,568-23.89,634.15A10.35,10.35,0,0,1,3240,3383c-7,1.15-18.46,2.1-29.79-1.19a9.47,9.47,0,0,1-6.8-8.71c-2.09-53.51,1.68-382-33.8-511.84A29.49,29.49,0,0,0,3158.2,2845l-68.86-49-5.28-79.13Z" transform="translate(-233.92 -231.21)" style="fill:url(#linear-gradient-24)"/><path d="M3029.55,2305.62c114.11-1.89,240,30,240,30,34,198.47,5.94,427.38,5.94,427.38-88.34,23.17-188-14.16-188-14.16-14.68-83-83.19-316.42-83.19-316.42-55.75-6.92-101.68-23-139.5-44.27,28.85-33.44,42.45-76,48.36-101.15C2953.53,2299.5,2994.36,2306.2,3029.55,2305.62Z" transform="translate(-233.92 -231.21)" style="fill:url(#linear-gradient-25)"/><path d="M2692.5,2137.54c11.21-13.54,25.39-7.13,25.39-7.13,16.79,70.93,104.84,128.44,195.3,156.55-5.91,25.16-19.51,67.71-48.36,101.15C2714.71,2303.71,2692.5,2137.54,2692.5,2137.54Z" transform="translate(-233.92 -231.21)" style="fill:url(#linear-gradient-26)"/><path d="M2695.22,2141c-1.18,3.73,12.41,9.41,20.4-5.84.28-7.31,4.73-38.62.36-44.57-23.26-31.72-68.36-71.47-68.36-71.47-7.62,7.52-1.34,14.91-1.34,14.91l21.88,22.79c-4.58,8.27-10.16,15.25-12.78,25.25a30.68,30.68,0,0,0,3.06,22.56c3.84,6.92,9.08,15.92,14,22.95C2681.85,2140.88,2695.22,2141,2695.22,2141Z" transform="translate(-233.92 -231.21)" style="fill:url(#linear-gradient-27)"/><path d="M2677.73,2071.59l19.93,16.9,6.26,16.82L2686.15,2125s-6-33.38-10.42-40.61S2673.59,2073.7,2677.73,2071.59Z" transform="translate(-233.92 -231.21)" style="fill:url(#linear-gradient-28)"/><path d="M3225.8,2446.07l43.77-110.49s106.58,72.42,124.11,164.24c-20.14,1.48-56.79,6.72-92.66,24.83C3293.14,2481.29,3225.8,2446.07,3225.8,2446.07Z" transform="translate(-233.92 -231.21)" style="fill:url(#linear-gradient-29)"/><path d="M3132.66,2550s119.66,67.63,160,9.88c8.38-12,10.39-23.91,8.32-35.27,35.87-18.11,72.52-23.35,92.66-24.83,5.28,27.68,2.49,57.12-13.78,86.87-70.72,129.38-263.08-7.15-263.08-7.15Z" transform="translate(-233.92 -231.21)" style="fill:url(#linear-gradient-30)"/><path d="M3147,2635.6l-65.3-228.08a6.66,6.66,0,0,0-5.63-4.79c-11.83-1.38-46.12-5.26-85.71-8.6-47.68-4-103.06-7.31-136.15-4.53a6.68,6.68,0,0,0-5.46,9.61c18.82,38.07,96.23,192.93,135,243.66a6.69,6.69,0,0,0,5.38,2.65l151.53-1.41A6.67,6.67,0,0,0,3147,2635.6Z" transform="translate(-233.92 -231.21)" style="fill:url(#linear-gradient-31)"/><path d="M2983.62,2374.35l-47.35-7.89a3.4,3.4,0,0,0-3.79,4.42l4.69,14.2a3.41,3.41,0,0,0,2.78,2.31l45.56,6.08a3.39,3.39,0,0,0,3.76-4.14l-2.9-12.4A3.41,3.41,0,0,0,2983.62,2374.35Z" transform="translate(-233.92 -231.21)" style="fill:url(#linear-gradient-32)"/><path d="M3019.07,2414.44l-3.9-20.32a4.69,4.69,0,0,0-4.14-3.79l-95.63-9.7a4.69,4.69,0,0,0-5,5.77l6.08,25.32a4.69,4.69,0,0,0,4.33,3.59l93.45,4.71A4.7,4.7,0,0,0,3019.07,2414.44Z" transform="translate(-233.92 -231.21)" style="fill:url(#linear-gradient-33)"/><path d="M3131.26,2580.49s9.09-37.41,5.42-50.68-10.78-30.34-34.48-26.54-51.65,13.77-51.65,13.77,1.41,17.29,19.42,11.71l-11.17,8.65s1.6,13.84,16.81,6.44l-10.39,11.47s6.54,11.36,17.73,4.07S3099.51,2585,3131.26,2580.49Z" transform="translate(-233.92 -231.21)" style="fill:url(#linear-gradient-34)"/><path d="M3145.13,2213l36.31,105a3.77,3.77,0,0,1-1.72,4.55c-9.9,5.48-45.56,21.29-88.53-6a17.84,17.84,0,0,1-8.2-12.72L3071.23,2213Z" transform="translate(-233.92 -231.21)" style="fill:url(#linear-gradient-35)"/><path d="M3066.13,2115.75s-39.87,75.05-34.75,105.36,54.52,28.14,97.67,3.52l30.15-81Z" transform="translate(-233.92 -231.21)" style="fill:url(#linear-gradient-36)"/><path d="M3127.14,2184.83a3.08,3.08,0,0,1-1.35-4.52c3.19-4.88,9.18-14.84,11.09-23.55,0,0,7.17-4.59-18.24-10.68s-63.3-15.52-71.27-37.15c-7.76-21.08,12.64-74.11,45.19-31.86a3.09,3.09,0,0,0,4.9,0c5.34-6.94,19.37-21.36,38.84-12.62,18.23,8.18,20.29,21.54,20,28.27a3.07,3.07,0,0,0,3.64,3.15c9.21-1.76,31.33-3.27,41.65,19.42,8.5,18.68,3,29.26-2.06,34.43a3.08,3.08,0,0,0,1.32,5.12c6.06,1.86,13.88,7,13.1,21.18-1.08,19.62-23,17.89-29.26,17a3.09,3.09,0,0,0-2.75,1c-5.35,5.92-29.48,31.08-55.58,34.12a3.12,3.12,0,0,1-3.28-4.13l11.3-32.84a3.09,3.09,0,0,0-1.68-3.85Z" transform="translate(-233.92 -231.21)" style="fill:url(#linear-gradient-37)"/><path d="M3122.6,2189.5s28.38-19.48,30.46-3.08-25.56,23.76-39.25,17.64Z" transform="translate(-233.92 -231.21)" style="fill:url(#linear-gradient-38)"/><path d="M1609.83,2106.71l11.77,2.21a4.27,4.27,0,0,1-1.57,8.39l-.22,0-.2-.05-11.27-2.78-.18,0a3.93,3.93,0,0,1,1.67-7.67Z" transform="translate(-233.92 -231.21)" style="fill:#fff"/><path d="M1648.58,2116.36l11.3,4.07a5.12,5.12,0,0,1-3.47,9.64l-.18-.07-.23-.1-10.7-4.37-.21-.08a4.87,4.87,0,0,1,3.49-9.09Z" transform="translate(-233.92 -231.21)" style="fill:#fff"/><path d="M1685.44,2132l10.56,5.74a5.72,5.72,0,0,1-5.46,10l-.11-.06-.22-.13-10-5.78-.2-.11a5.57,5.57,0,0,1,5.44-9.71Z" transform="translate(-233.92 -231.21)" style="fill:#fff"/><path d="M1719.67,2152.75l9.69,7.13a6.22,6.22,0,1,1-7.37,10l-.1-.07-.22-.17-9.12-7.08-.19-.15a6.07,6.07,0,0,1,7.31-9.68Z" transform="translate(-233.92 -231.21)" style="fill:#fff"/><path d="M1750.74,2178.08l8.6,8.42a6.47,6.47,0,1,1-9,9.25l0,0-.18-.18-8.17-8.13-.18-.18a6.42,6.42,0,0,1,9-9.14Z" transform="translate(-233.92 -231.21)" style="fill:#fff"/><path d="M1778.07,2207.35l7.51,9.27a6.62,6.62,0,1,1-10.28,8.34l0,0-.1-.12-7.26-9.08-.1-.12a6.58,6.58,0,0,1,10.25-8.26Z" transform="translate(-233.92 -231.21)" style="fill:#fff"/><path d="M1802.34,2238.8l6.88,9.71a6.75,6.75,0,0,1-11,7.81l0,0-.06-.1-6.68-9.56-.07-.1a6.71,6.71,0,0,1,11-7.72Z" transform="translate(-233.92 -231.21)" style="fill:#fff"/><path d="M1824.52,2271.68l6.24,10.12a6.67,6.67,0,0,1-11.32,7.06l-.06-.1-6.22-9.88-.06-.09a6.73,6.73,0,1,1,11.38-7.17Z" transform="translate(-233.92 -231.21)" style="fill:#fff"/><path d="M1844.4,2306l5.45,10.59a6,6,0,0,1-10.52,5.73l-.06-.12-5.81-10.12-.06-.1a6.26,6.26,0,1,1,10.87-6.23Z" transform="translate(-233.92 -231.21)" style="fill:#fff"/><path d="M1861.43,2341.86l4.39,11.1a4.58,4.58,0,0,1-8.34,3.75l-.07-.15-5.21-10.42-.07-.13a5.1,5.1,0,1,1,9.12-4.55A3.52,3.52,0,0,1,1861.43,2341.86Z" transform="translate(-233.92 -231.21)" style="fill:#fff"/><path d="M1615.79,2062.58l11.64,2.46a4.06,4.06,0,1,1-1.68,7.95h-.07l-.13,0-11.37-2.68-.1,0a3.93,3.93,0,0,1,1.71-7.67Z" transform="translate(-233.92 -231.21)" style="fill:#fff"/><path d="M1654.3,2071.93l11.39,3.44a4.52,4.52,0,0,1-2.61,8.65l-.08,0-.13,0-11.09-3.63-.11,0a4.38,4.38,0,0,1,2.63-8.36Z" transform="translate(-233.92 -231.21)" style="fill:#fff"/><path d="M1691.91,2084.45l11.09,4.33a5,5,0,0,1-3.62,9.27l-.09,0-.12-.06-10.78-4.5-.1,0a4.84,4.84,0,0,1,3.62-9Z" transform="translate(-233.92 -231.21)" style="fill:#fff"/><path d="M1728.42,2099.94l10.7,5.21a5.28,5.28,0,0,1-4.61,9.49l0,0-.13-.06-10.42-5.24-.11-.05a5.2,5.2,0,0,1,4.61-9.33Z" transform="translate(-233.92 -231.21)" style="fill:#fff"/><path d="M1763.64,2118.2l10.3,6a5.53,5.53,0,0,1-5.55,9.57l0,0-.13-.07-10-6-.11-.06a5.46,5.46,0,0,1,5.54-9.4Z" transform="translate(-233.92 -231.21)" style="fill:#fff"/><path d="M1797.46,2139l9.85,6.71a5.79,5.79,0,1,1-6.52,9.57l0,0-.13-.09-9.55-6.68-.11-.07a5.72,5.72,0,0,1,6.49-9.41Z" transform="translate(-233.92 -231.21)" style="fill:#fff"/><path d="M1829.68,2162.19l9.3,7.46a5.93,5.93,0,0,1-7.42,9.26l0,0-.1-.08-9.07-7.33-.1-.08a5.91,5.91,0,0,1,7.41-9.21Z" transform="translate(-233.92 -231.21)" style="fill:#fff"/><path d="M1860,2187.87l8.71,8.15a6,6,0,0,1-8.23,8.79l0,0-.11-.1-8.46-8-.11-.1a6,6,0,0,1,8.22-8.73Z" transform="translate(-233.92 -231.21)" style="fill:#fff"/><path d="M1888.27,2215.87l8,8.87a6.1,6.1,0,1,1-9.06,8.18v0l-.11-.11-7.76-8.67-.11-.11a6.08,6.08,0,0,1,9-8.14Z" transform="translate(-233.92 -231.21)" style="fill:#fff"/><path d="M1914,2246.26l7.17,9.59a6.19,6.19,0,1,1-9.91,7.41l0,0-.11-.15-6.91-9.33-.11-.14a6.16,6.16,0,0,1,9.89-7.36Z" transform="translate(-233.92 -231.21)" style="fill:#fff"/><path d="M1936.75,2279.08l6.06,10.37a6.18,6.18,0,0,1-10.64,6.28l-.12-.19-5.92-9.94-.11-.18a6.23,6.23,0,1,1,10.71-6.38Z" transform="translate(-233.92 -231.21)" style="fill:#fff"/><path d="M1955.3,2314.55l4.48,11.17a5.59,5.59,0,0,1-10.25,4.43l-.11-.23-4.84-10.49-.1-.22a5.89,5.89,0,0,1,10.7-4.93C1955.22,2314.36,1955.26,2314.47,1955.3,2314.55Z" transform="translate(-233.92 -231.21)" style="fill:#fff"/><path d="M1968.14,2352.51l2.5,11.76a4.21,4.21,0,0,1-8.13,2.13l-.07-.23-3.4-11.07-.07-.21a4.74,4.74,0,1,1,9.06-2.79C1968.07,2352.23,1968.11,2352.37,1968.14,2352.51Z" transform="translate(-233.92 -231.21)" style="fill:#fff"/><path d="M1618.05,2026l11.82,1.1a4.24,4.24,0,0,1-.79,8.45l-.2,0h-.1l-11.58-1.7h-.08a3.93,3.93,0,0,1,.93-7.8Z" transform="translate(-233.92 -231.21)" style="fill:#fff"/><path d="M1657.36,2030.63l11.72,1.93a5.15,5.15,0,1,1-1.68,10.17l-.18,0-.11,0-11.45-2.36-.1,0a4.92,4.92,0,0,1,1.8-9.67Z" transform="translate(-233.92 -231.21)" style="fill:#fff"/><path d="M1696.29,2037.92l11.59,2.65a5.93,5.93,0,0,1-2.64,11.56l-.2-.05-.12,0-11.28-3.05-.1,0a5.69,5.69,0,0,1,2.75-11Z" transform="translate(-233.92 -231.21)" style="fill:#fff"/><path d="M1734.75,2047.53l11.41,3.34a6.67,6.67,0,1,1-3.74,12.81l-.19,0-.13-.05-11.09-3.66-.11,0a6.47,6.47,0,0,1,3.85-12.36Z" transform="translate(-233.92 -231.21)" style="fill:#fff"/><path d="M1772.54,2059.5l11.21,4a7.15,7.15,0,1,1-4.81,13.47l-.13,0-.13-.05-10.9-4.19-.11,0a7,7,0,0,1,4.87-13.14Z" transform="translate(-233.92 -231.21)" style="fill:#fff"/><path d="M1809.64,2073.49l11,4.56a7.63,7.63,0,1,1-5.84,14.09l-.13-.06-.14-.06-10.67-4.73-.1,0a7.48,7.48,0,0,1,5.89-13.76Z" transform="translate(-233.92 -231.21)" style="fill:#fff"/><path d="M1846,2089.29l10.77,5.06a8.1,8.1,0,0,1-6.91,14.66l-.14-.07-.13-.06-10.44-5.23-.1-.05a8,8,0,0,1,7-14.31Z" transform="translate(-233.92 -231.21)" style="fill:#fff"/><path d="M1881.62,2106.74l10.5,5.58a8.52,8.52,0,0,1-8,15l-.06,0-.14-.07-10.23-5.64-.09-.05a8.43,8.43,0,0,1,8-14.82Z" transform="translate(-233.92 -231.21)" style="fill:#fff"/><path d="M1916.29,2126l10.23,6.05a8.67,8.67,0,1,1-8.83,14.93l-.06,0-.09-.05-10-6-.09-.05a8.63,8.63,0,0,1,8.85-14.81Z" transform="translate(-233.92 -231.21)" style="fill:#fff"/><path d="M1950.11,2146.61l10,6.5a8.83,8.83,0,0,1-9.62,14.81l-.06,0-.13-.09-9.7-6.42-.12-.08a8.78,8.78,0,0,1,9.63-14.68Z" transform="translate(-233.92 -231.21)" style="fill:#fff"/><path d="M1983,2169.23l9.54,7.42a9,9,0,1,1-11,14.18l-.06,0-.24-.19-9-7.12-.23-.19a8.94,8.94,0,0,1,11-14.06Z" transform="translate(-233.92 -231.21)" style="fill:#fff"/><path d="M2013.8,2195.41l8.54,8.65a9.14,9.14,0,0,1-13,12.85l0,0-.26-.28-8-8.18-.27-.27a9.09,9.09,0,0,1,13-12.72Z" transform="translate(-233.92 -231.21)" style="fill:#fff"/><path d="M2040.84,2225.5l7.33,9.6a9.3,9.3,0,1,1-14.78,11.29l-.05-.06-.17-.24-6.9-9.18-.18-.24a9.25,9.25,0,0,1,14.75-11.17Z" transform="translate(-233.92 -231.21)" style="fill:#fff"/><path d="M2063.93,2258.3l6.3,10.17a9.1,9.1,0,0,1-15.39,9.71l-.1-.15-6.26-9.77-.1-.16a9.19,9.19,0,0,1,15.48-9.91Z" transform="translate(-233.92 -231.21)" style="fill:#fff"/><path d="M2083.87,2292.7l5.46,10.56a8.09,8.09,0,0,1-14.07,7.95l-.06-.11-6.1-10,0-.08a8.51,8.51,0,0,1,14.52-8.87C2083.68,2292.34,2083.78,2292.53,2083.87,2292.7Z" transform="translate(-233.92 -231.21)" style="fill:#fff"/><path d="M2101.43,2328.14c1.67,3.58,3.27,7.19,4.88,10.79a6.18,6.18,0,0,1-10.91,5.75l0,0c-2-3.35-4.1-6.69-6.08-10.07l0,0a6.87,6.87,0,1,1,11.86-6.94C2101.24,2327.77,2101.34,2328,2101.43,2328.14Z" transform="translate(-233.92 -231.21)" style="fill:#fff"/><path d="M2117,2364.43l.25.63a3.94,3.94,0,0,1-7,3.55l-.36-.56a4,4,0,1,1,6.78-4.27A3.31,3.31,0,0,1,2117,2364.43Z" transform="translate(-233.92 -231.21)" style="fill:#fff"/><path d="M1605.2,1988.37l11.84-.55a4.23,4.23,0,1,1,.39,8.45h-.27l-11.73-.06h-.06a3.93,3.93,0,0,1-.17-7.85Z" transform="translate(-233.92 -231.21)" style="fill:#fff"/><path d="M1644.71,1987.27l11.86.13a5.13,5.13,0,0,1-.11,10.26h-.28l-11.69-.57h-.08a4.91,4.91,0,0,1,.3-9.81Z" transform="translate(-233.92 -231.21)" style="fill:#fff"/><path d="M1684.24,1988.39l11.85.71a5.88,5.88,0,1,1-.71,11.73h-.31l-11.64-1.15h-.09a5.65,5.65,0,0,1,.9-11.26Z" transform="translate(-233.92 -231.21)" style="fill:#fff"/><path d="M1723.7,1991.45l11.81,1.29a6.62,6.62,0,0,1-1.44,13.16l-.22,0-.12,0-11.57-1.71h-.09a6.39,6.39,0,0,1,1.63-12.68Z" transform="translate(-233.92 -231.21)" style="fill:#fff"/><path d="M1763,1996.53l11.73,2a7.17,7.17,0,1,1-2.36,14.15l-.12,0-.14,0-11.48-2.19-.1,0a7,7,0,0,1,2.47-13.85Z" transform="translate(-233.92 -231.21)" style="fill:#fff"/><path d="M1802,2003.69l11.63,2.52a7.63,7.63,0,0,1-3.23,14.92l-.14,0-.14,0-11.35-2.73-.11,0a7.49,7.49,0,0,1,3.34-14.61Z" transform="translate(-233.92 -231.21)" style="fill:#fff"/><path d="M1840.58,2012.75l11.49,3.09a8.08,8.08,0,0,1-4.19,15.61l-.14,0-.15,0-11.2-3.29-.11,0a7.95,7.95,0,0,1,4.3-15.3Z" transform="translate(-233.92 -231.21)" style="fill:#fff"/><path d="M1878.72,2023.71l11.34,3.66a8.54,8.54,0,0,1-5.24,16.25l-.15,0-.16-.06-11-3.83-.12,0a8.4,8.4,0,0,1,5.34-15.93Z" transform="translate(-233.92 -231.21)" style="fill:#fff"/><path d="M1916.3,2036.58l11.13,4.27a9,9,0,1,1-6.41,16.72l-.1,0-.17-.06-10.8-4.36-.13-.05a8.85,8.85,0,0,1,6.48-16.48Z" transform="translate(-233.92 -231.21)" style="fill:#fff"/><path d="M1953.12,2051.57l10.89,4.88a9.19,9.19,0,0,1-7.52,16.77l-.06,0-.18-.08-10.56-4.89-.13-.06a9.12,9.12,0,0,1,7.56-16.59Z" transform="translate(-233.92 -231.21)" style="fill:#fff"/><path d="M1989.1,2068.55l10.61,5.48a9.42,9.42,0,1,1-8.65,16.74l0,0-.19-.09-10.26-5.46-.14-.08a9.35,9.35,0,0,1,8.68-16.56Z" transform="translate(-233.92 -231.21)" style="fill:#fff"/><path d="M2024.11,2087.54l10.24,6.09a9.61,9.61,0,0,1-9.83,16.52l0,0-.1-.06-10-6-.11-.06a9.59,9.59,0,0,1,9.84-16.46Z" transform="translate(-233.92 -231.21)" style="fill:#fff"/><path d="M2057.92,2108.37l10,6.55a9.69,9.69,0,1,1-10.64,16.19l0,0-.12-.08-9.71-6.44-.11-.07a9.66,9.66,0,0,1,10.65-16.13Z" transform="translate(-233.92 -231.21)" style="fill:#fff"/><path d="M2090.77,2130.77l9.64,7a9.77,9.77,0,0,1-11.53,15.77l0,0-.13-.09-9.36-6.9-.12-.1a9.74,9.74,0,0,1,11.53-15.7Z" transform="translate(-233.92 -231.21)" style="fill:#fff"/><path d="M2122.46,2154.87l9.23,7.6a9.83,9.83,0,1,1-12.48,15.18h0l-.14-.11-9-7.39-.13-.11a9.82,9.82,0,0,1,12.49-15.16Z" transform="translate(-233.92 -231.21)" style="fill:#fff"/><path d="M2152.62,2181l8.72,8.21a9.66,9.66,0,0,1-13.18,14.12l-.15-.13-8.51-7.88-.14-.13a9.71,9.71,0,0,1,13.2-14.25Z" transform="translate(-233.92 -231.21)" style="fill:#fff"/><path d="M2181,2209.11,2189,2218a9.28,9.28,0,0,1-13.57,12.65l-.16-.17-8-8.37-.14-.14a9.44,9.44,0,1,1,13.65-13S2180.9,2209.06,2181,2209.11Z" transform="translate(-233.92 -231.21)" style="fill:#fff"/><path d="M2207,2239.44l7.26,9.56a8.66,8.66,0,0,1-13.55,10.79l-.15-.19-7.4-8.9-.13-.16a8.92,8.92,0,1,1,13.73-11.4Z" transform="translate(-233.92 -231.21)" style="fill:#fff"/><path d="M2230.23,2272l6.35,10.19a7.74,7.74,0,0,1-12.89,8.56l-.14-.2-6.65-9.47-.12-.18a8.07,8.07,0,1,1,13.21-9.26C2230.07,2271.76,2230.16,2271.9,2230.23,2272Z" transform="translate(-233.92 -231.21)" style="fill:#fff"/><path d="M2250.18,2306.67l5.23,10.8a6.46,6.46,0,0,1-11.39,6.09l-.11-.2-5.83-10-.1-.17a6.92,6.92,0,0,1,12-7C2250,2306.36,2250.11,2306.52,2250.18,2306.67Z" transform="translate(-233.92 -231.21)" style="fill:#fff"/><path d="M2266.21,2343.23l4,11.28a4.76,4.76,0,0,1-8.79,3.6l-.08-.16-4.9-10.56-.07-.15a5.33,5.33,0,0,1,9.67-4.48A3.85,3.85,0,0,1,2266.21,2343.23Z" transform="translate(-233.92 -231.21)" style="fill:#fff"/><path d="M662.05,2198.5s-10.61,276.76-203.92,364.9l85.84,60s174.14-196.15,147.79-372.23Z" transform="translate(-233.92 -231.21)" style="fill:url(#linear-gradient-39)"/><path d="M844.65,1574.27h435.41a11.68,11.68,0,0,1,11.68,11.68v38.27a0,0,0,0,1,0,0H833a0,0,0,0,1,0,0V1586A11.68,11.68,0,0,1,844.65,1574.27Z" transform="translate(1090.76 -533.9) rotate(41.45)" style="fill:url(#linear-gradient-40)"/><polygon points="829.43 1795.88 1308.21 1844.8 1308.02 1905.1 588.08 2172.58 829.43 1795.88" style="fill:url(#linear-gradient-41)"/><path d="M350.36,1855.49c-.58-.51-1.14-1-1.69-1.57l-79.78-78.32c-49-48.07-46.17-130.62,6.23-184L428.85,1435c52.41-53.38,134.89-57.68,183.86-9.63l79.77,78.32a43.08,43.08,0,1,1-60.36,61.48l-79.77-78.31c-14.81-14.57-43.21-10.65-62,8.5L336.61,1652c-18.8,19.15-22.17,47.61-7.36,62.16L409,1792.43a43.08,43.08,0,0,1-58.67,63.06Z" transform="translate(-233.92 -231.21)" style="fill:url(#linear-gradient-42)"/><path d="M1271.68,1800.14l-426.94-377A62.75,62.75,0,0,0,758.6,1426L342.79,1846.18q-1.25,1.27-2.43,2.61l-52.8,59.78a62.75,62.75,0,0,0,5.5,88.57l477.21,421.43a62.73,62.73,0,0,0,88.56-5.5l52.8-59.78c.79-.89,1.55-1.8,2.28-2.74L1279.45,1886A62.75,62.75,0,0,0,1271.68,1800.14Z" transform="translate(-233.92 -231.21)" style="fill:url(#linear-gradient-43)"/><path d="M1686.52,2215.12,1637,1946.7a7.89,7.89,0,0,0-9.19-6.33l-17.42,3.22A7.87,7.87,0,0,0,1606,1946l-74.48,128,10.5,63.57,115.81,89.22a7.88,7.88,0,0,0,4.94.69l17.42-3.21A7.89,7.89,0,0,0,1686.52,2215.12Z" transform="translate(-233.92 -231.21)" style="fill:url(#linear-gradient-44)"/><path d="M559.7,2153.36a5.87,5.87,0,0,1-3.9-1.48L361.55,1980.34a46,46,0,0,1-2.28-66.77l297-300.73a5.89,5.89,0,0,1,8.38,8.28l-297,300.74a34.17,34.17,0,0,0,1.69,49.64L563.6,2143.05a5.89,5.89,0,0,1-3.9,10.31Z" transform="translate(-233.92 -231.21)" style="fill:#fff"/><path d="M489.48,3064.08S387.25,3286.9,333.61,3379.2c0,0-10.66,58.07,0,76.33l9.08,4-42.38-1.26s-3.76-78.11-.82-82.47,8.82-4.08,8.82-4.08,18.17-143.94,70.78-174.66l51-175.64Z" transform="translate(-233.92 -231.21)" style="fill:url(#linear-gradient-45)"/><path d="M360.78,3470.5c.07,1-33.08.56-51.09.23A14.34,14.34,0,0,1,296,3459.44L282.35,3388a12.84,12.84,0,0,1,9.76-14.92l7.59-1.74s10.83,14.86,7.42,28.84-6.44,50.21,2.17,54.43,33.4,5,33.4,5S360.22,3461.3,360.78,3470.5Z" transform="translate(-233.92 -231.21)" style="fill:url(#linear-gradient-46)"/><path d="M384.86,3175.47l55.41-306.85,102.28,63.93S473.78,3124.8,436,3201,346.51,3363,346.51,3363s-17.05,4.26-38.36-21.31C308.15,3341.68,320.94,3226.61,384.86,3175.47Z" transform="translate(-233.92 -231.21)" style="fill:url(#linear-gradient-47)"/><path d="M586.38,3471.8a3.74,3.74,0,0,1-1.89,7c-30.14-.3-97.66-1.26-103.66-3.75-7.75-3.22,2.82-31.06,13.95-40.48l61.42,20Z" transform="translate(-233.92 -231.21)" style="fill:url(#linear-gradient-48)"/><path d="M605.44,3049.87s-66.06,319.61-84.75,382l44.21,27.74s-22.15-3.76-38.58-5-31.54-20-31.54-20l5.29-8.45s16.57-317.86,12.54-354Z" transform="translate(-233.92 -231.21)" style="fill:url(#linear-gradient-49)"/><path d="M632.46,2543.15c-25.32,7-111.11,29.59-164.67,28.67l32.88,185.56-2.62,30.27,107.22-.48s30.18-70.09,54-105c6.88-10.09,1.76-22.13-2.14-33.7l5.36-3.57a14.59,14.59,0,0,0,5.78-16.67l-26.11-79.88A8,8,0,0,0,632.46,2543.15Z" transform="translate(-233.92 -231.21)" style="fill:url(#linear-gradient-50)"/><path d="M613.86,2771.33l-1.59,13.82a18.59,18.59,0,0,0,.93,8.37c5.09,14.4,21.19,68.53,10.32,151.82,0,0-62.14,24-127.53,5.64A76.38,76.38,0,0,1,441,2866.76a135.84,135.84,0,0,1,5.29-22.61c8.57-27.45,35.24-46.45,46.56-53.49a11.63,11.63,0,0,0,5.46-9.36l.64-13.68S585.51,2783.26,613.86,2771.33Z" transform="translate(-233.92 -231.21)" style="fill:url(#linear-gradient-51)"/><path d="M571.89,2558.11c.38-.5-22.38-68.72-22.38-68.72l-32.6,3-12.74,77.39S555.26,2580.05,571.89,2558.11Z" transform="translate(-233.92 -231.21)" style="fill:url(#linear-gradient-52)"/><path d="M524.71,2381.82c2.18,1.35,69.66,29.24,55.16,99.31a13.13,13.13,0,0,1-7.48,9.37c-9.9,4.42-31.22,12-56.72,9.39-35.36-3.6-58.53-65.29-57.54-83.24S503.17,2368.4,524.71,2381.82Z" transform="translate(-233.92 -231.21)" style="fill:url(#linear-gradient-53)"/><path d="M638,2582a14.29,14.29,0,0,1,12.73-19.42c24.88-1.14,68.12-9,104.72-45.59,23.74-23.75,30-110.12,30-110.12s5-40,15-40,0,25,0,25,25,15,50-5-5,30-30,40c0,0,9.62,197.19-155,200.27a14.38,14.38,0,0,1-13.68-9.2Z" transform="translate(-233.92 -231.21)" style="fill:url(#linear-gradient-54)"/><path d="M547.61,2523.28a92.21,92.21,0,0,0-7.73-37.08c-5.6-12.79-4.45-27.74,4.51-38.46,14.66-17.54,20-39.78,11.9-59.25-12.62-30.41-53.07-42.51-90.35-27-26.43,11-44.15,32.84-47.73,55.48a51,51,0,0,1-19.49,32.62,92.83,92.83,0,0,0-32,45.22c-4,12.28-11.93,22.85-23.14,29.25a141.28,141.28,0,0,0-59.19,65.35c-32.05,71.76.34,156,72.33,188.15s156.34.05,188.4-71.71a141.77,141.77,0,0,0-2-120.07c-4.45-9.16-5.38-19.71-1.69-29.2A91.79,91.79,0,0,0,547.61,2523.28Z" transform="translate(-233.92 -231.21)" style="fill:url(#linear-gradient-55)"/><path d="M491.41,3409.87c-5.8-1.65,21.31-430.44,21.31-430.44l-17.05-42.62,127.85,8.53s-51.14,387.82-81,468.79C542.55,3414.13,521.24,3418.39,491.41,3409.87Z" transform="translate(-233.92 -231.21)" style="fill:url(#linear-gradient-56)"/><path d="M605.44,2550.26l-23.53,5.62s16,159.32-26.58,219l25.57,4.26S625.72,2687.9,605.44,2550.26Z" transform="translate(-233.92 -231.21)" style="fill:url(#linear-gradient-57)"/></g></svg>