<svg id="Layer_1" data-name="Layer 1" xmlns="http://www.w3.org/2000/svg" viewBox="0 0 20.27 20.37"><path d="M10.14.09a10.09,10.09,0,0,0-8.8,15.05L.06,19.72a.45.45,0,0,0,.11.43.44.44,0,0,0,.31.13H.59l4.78-1.19a10.09,10.09,0,1,0,4.77-19Zm5.08,13.66A2.72,2.72,0,0,1,13.47,15a3.65,3.65,0,0,1-1.64-.11,11.92,11.92,0,0,1-1.47-.54,11.45,11.45,0,0,1-4.43-3.86A5,5,0,0,1,4.87,7.81a2.84,2.84,0,0,1,.91-2.13,1,1,0,0,1,.69-.32H7c.16,0,.37-.06.58.44s.73,1.77.8,1.9a.47.47,0,0,1,0,.45,1.83,1.83,0,0,1-.26.42c-.13.15-.27.34-.39.45s-.26.27-.11.52a7.62,7.62,0,0,0,1.44,1.78,7.18,7.18,0,0,0,2.08,1.27.41.41,0,0,0,.57-.07c.15-.17.64-.74.82-1s.34-.21.58-.13,1.51.71,1.77.83a1.51,1.51,0,0,1,.5.3A2.22,2.22,0,0,1,15.22,13.75Z"/></svg>